<svg width="24" height="24" viewBox="0 0 24 24" fill="none" xmlns="http://www.w3.org/2000/svg">
<path d="M15.3146 0C18.3543 1.14036e-09 19.8745 -0.000169209 21.0355 0.591309C22.057 1.11176 22.8872 1.94303 23.4077 2.96447C23.9993 4.12564 24 5.64546 24 8.6854V15.3146C24 18.3546 23.9994 19.8744 23.4077 21.0355C22.8872 22.057 22.057 22.8872 21.0355 23.4077C19.8744 23.9994 18.3546 24 15.3146 24H8.6854C5.64546 24 4.12564 23.9993 2.96447 23.4077C1.94303 22.8872 1.11176 22.057 0.591309 21.0355C-0.000169209 19.8745 1.14038e-09 18.3543 0 15.3146V8.6854C4.02612e-10 5.64574 -9.82971e-05 4.1256 0.591309 2.96447C1.11176 1.94303 1.94303 1.11176 2.96447 0.591309C4.1256 -9.82971e-05 5.64574 4.02618e-10 8.6854 0H15.3146ZM8.45859 6.8263C8.39513 6.81703 8.33674 6.87503 8.34567 6.94119C8.3449 7.16568 8.32346 7.39038 8.28129 7.61075C8.24923 7.737 8.21737 7.84962 8.18522 7.9485L4.96521 17.4599C4.93296 17.5809 4.97002 17.642 5.07713 17.6422H6.961C7.0506 17.6466 7.13298 17.583 7.15414 17.4936L7.91086 15.0828H11.6301L12.4512 17.5263C12.4687 17.5999 12.5392 17.6506 12.6126 17.6422H14.7055C14.8019 17.6422 14.8337 17.5869 14.8015 17.4768L11.1467 6.90851C11.1358 6.85355 11.0929 6.8263 11.018 6.8263H8.45859ZM15.9931 9.43519C15.9071 9.43521 15.8643 9.48469 15.8643 9.58376V17.4768C15.8644 17.5867 15.9126 17.6421 16.0089 17.6422H17.973C18.0588 17.6423 18.1017 17.5869 18.1018 17.4768V9.58376C18.1017 9.48467 18.0587 9.43519 17.973 9.43519H15.9931ZM9.76303 8.72502C10.1453 10.1642 10.6169 11.5737 11.0348 13.0019H8.49028C8.89974 11.6027 9.35058 10.1667 9.76303 8.72502ZM17.0073 6.00025C16.8429 5.99592 16.6793 6.02548 16.5259 6.08642C16.3727 6.14731 16.2324 6.23818 16.1139 6.35483C15.9941 6.47284 15.9 6.61595 15.8376 6.7738C15.7752 6.93173 15.7456 7.10169 15.7514 7.27201C15.7446 7.44396 15.7706 7.61573 15.8286 7.77715C15.8867 7.93871 15.9761 8.08661 16.0901 8.21295C16.2043 8.33378 16.3419 8.42873 16.4942 8.49127C16.6469 8.55384 16.8114 8.58322 16.9756 8.57645C17.1457 8.5847 17.3157 8.55657 17.4748 8.49424C17.634 8.43169 17.7793 8.33574 17.9007 8.21295C18.0169 8.08781 18.1077 7.93979 18.1671 7.77814C18.2265 7.61663 18.2541 7.44446 18.2474 7.27201C18.2539 7.10452 18.2277 6.93699 18.1711 6.77975C18.1144 6.62252 18.0286 6.47781 17.9175 6.35483C17.6975 6.11817 17.3938 6.00025 17.0073 6.00025Z" fill="url(#paint0_linear_464_771)"/>
<defs>
<linearGradient id="paint0_linear_464_771" x1="31.1306" y1="4.72926" x2="8.14024" y2="-2.36819" gradientUnits="userSpaceOnUse">
<stop stop-color="#00B277"/>
<stop offset="1" stop-color="#0092E7"/>
</linearGradient>
</defs>
</svg>
