<svg width="51" height="51" viewBox="0 0 51 51" fill="none" xmlns="http://www.w3.org/2000/svg">
<path d="M31.875 23.1094H41.4375C42.4942 23.1094 43.5077 22.6896 44.2549 21.9424C45.0021 21.1952 45.4219 20.1817 45.4219 19.125V9.5625C45.4219 8.50578 45.0021 7.49234 44.2549 6.74512C43.5077 5.99791 42.4942 5.57812 41.4375 5.57812H31.875C30.8183 5.57813 29.8048 5.99791 29.0576 6.74512C28.3104 7.49234 27.8906 8.50578 27.8906 9.5625V11.9531H25.5C24.0206 11.9531 22.6018 12.5408 21.5557 13.5869C20.5096 14.633 19.9219 16.0518 19.9219 17.5312V23.1094H15.1406V22.3125C15.1406 21.2558 14.7208 20.2423 13.9736 19.4951C13.2264 18.7479 12.213 18.3281 11.1562 18.3281H4.78125C4.25801 18.3281 3.7399 18.4312 3.2565 18.6314C2.77309 18.8317 2.33385 19.1251 1.96387 19.4951C1.21666 20.2423 0.796875 21.2558 0.796875 22.3125V28.6875C0.796875 29.2107 0.899934 29.7288 1.10017 30.2123C1.3004 30.6957 1.59389 31.1349 1.96387 31.5049C2.33385 31.8749 2.77309 32.1683 3.2565 32.3686C3.7399 32.5688 4.25801 32.6719 4.78125 32.6719H11.1562C11.6795 32.6719 12.1976 32.5688 12.681 32.3686C13.1644 32.1683 13.6036 31.8749 13.9736 31.5049C14.3436 31.1349 14.6371 30.6957 14.8373 30.2123C15.0376 29.7288 15.1406 29.2107 15.1406 28.6875V27.8906H19.9219V33.4688C19.9219 34.9482 20.5096 36.367 21.5557 37.4131C22.6018 38.4592 24.0206 39.0469 25.5 39.0469H27.8906V41.4375C27.8906 42.4942 28.3104 43.5077 29.0576 44.2549C29.8048 45.0021 30.8183 45.4219 31.875 45.4219H41.4375C42.4942 45.4219 43.5077 45.0021 44.2549 44.2549C45.0021 43.5077 45.4219 42.4942 45.4219 41.4375V31.875C45.4219 30.8183 45.0021 29.8048 44.2549 29.0576C43.5077 28.3104 42.4942 27.8906 41.4375 27.8906H31.875C30.8183 27.8906 29.8048 28.3104 29.0576 29.0576C28.3104 29.8048 27.8906 30.8183 27.8906 31.875V34.2656H25.5C25.2887 34.2656 25.086 34.1817 24.9365 34.0322C24.7871 33.8828 24.7031 33.6801 24.7031 33.4688V17.5312C24.7031 17.3199 24.7871 17.1172 24.9365 16.9678C25.086 16.8183 25.2887 16.7344 25.5 16.7344H27.8906V19.125C27.8906 20.1817 28.3104 21.1952 29.0576 21.9424C29.8048 22.6896 30.8183 23.1094 31.875 23.1094ZM10.3594 27.8906H5.57812V23.1094H10.3594V27.8906ZM32.6719 32.6719H40.6406V40.6406H32.6719V32.6719ZM32.6719 10.3594H40.6406V18.3281H32.6719V10.3594Z" fill="url(#paint0_linear_464_722)"/>
<defs>
<linearGradient id="paint0_linear_464_722" x1="45.4219" y1="-0.61979" x2="0.606252" y2="-0.433486" gradientUnits="userSpaceOnUse">
<stop stop-color="#00B277"/>
<stop offset="1" stop-color="#0092E7"/>
</linearGradient>
</defs>
</svg>
