<svg width="20" height="25" viewBox="0 0 20 25" fill="none" xmlns="http://www.w3.org/2000/svg">
<path d="M1.33398 2.66669C2.06995 2.66708 2.66682 3.26371 2.66699 3.99969L2.66602 9.39911C2.66602 10.1676 2.66741 10.6641 2.69824 11.0417C2.7278 11.4034 2.7779 11.5381 2.81152 11.6042C2.93995 11.8562 3.14483 12.06 3.39453 12.1872C3.46023 12.2206 3.59419 12.271 3.95508 12.3005C4.33231 12.3313 4.82858 12.3327 5.5957 12.3327H12.7803L8.39062 7.94208C7.86996 7.42137 7.86994 6.57702 8.39062 6.05634C8.91127 5.53623 9.75483 5.5361 10.2754 6.05634L16.9424 12.7233C17.1923 12.9733 17.3329 13.3123 17.333 13.6657C17.333 14.0192 17.1923 14.359 16.9424 14.6091L10.2754 21.2751C9.75469 21.7957 8.91131 21.7957 8.39062 21.2751C7.86996 20.7544 7.86994 19.91 8.39062 19.3893L12.7803 14.9997H5.5957C4.87251 14.9997 4.24929 15.0004 3.73828 14.9587C3.21176 14.9157 2.68783 14.8201 2.18359 14.5632C1.42989 14.1791 0.818455 13.5665 0.435547 12.8151C0.178646 12.3109 0.0831281 11.7864 0.0400391 11.2595C0.0191498 11.0037 0.0088685 10.7193 0.00390625 10.4089L0 9.39911V3.99969C0.000235644 3.26346 0.597705 2.66662 1.33398 2.66669Z" fill="url(#paint0_linear_452_534)"/>
<defs>
<linearGradient id="paint0_linear_452_534" x1="17.333" y1="-0.288693" x2="-0.0741419" y2="-0.229748" gradientUnits="userSpaceOnUse">
<stop stop-color="#00B277"/>
<stop offset="1" stop-color="#0092E7"/>
</linearGradient>
</defs>
</svg>
