<svg width="22" height="19" viewBox="0 0 22 19" fill="none" xmlns="http://www.w3.org/2000/svg">
<path d="M21.1087 9.93951L13.3746 17.6747C13.1325 17.9169 12.804 18.0529 12.4615 18.053C12.1191 18.053 11.7906 17.917 11.5484 17.6748C11.3062 17.4327 11.1701 17.1042 11.1701 16.7617C11.1701 16.4192 11.3061 16.0908 11.5483 15.8486L17.0814 10.3169L1.28984 10.318C0.947944 10.318 0.620046 10.1822 0.378275 9.94047C0.136504 9.69873 0.000664515 9.37086 0.000640268 9.02896C0.000616022 8.68707 0.136409 8.35917 0.378145 8.1174C0.619882 7.87563 0.947761 7.73979 1.28965 7.73977L17.0812 7.73865L11.5494 2.20449C11.3073 1.96233 11.1712 1.63389 11.1712 1.2914C11.1711 0.948917 11.3072 0.62045 11.5493 0.37826C11.7915 0.136069 12.1199 -5.04215e-06 12.4624 -2.93346e-05C12.8049 -5.3627e-05 13.1334 0.135974 13.3755 0.37813L21.1107 8.1122C21.2309 8.23212 21.3263 8.3746 21.3912 8.53146C21.4562 8.68833 21.4896 8.85648 21.4894 9.02628C21.4892 9.19607 21.4555 9.36415 21.3902 9.52087C21.3248 9.67759 21.2292 9.81986 21.1087 9.93951Z" fill="url(#paint0_linear_579_619)"/>
<defs>
<linearGradient id="paint0_linear_579_619" x1="21.4886" y1="-2.80891" x2="-0.0919368" y2="-2.71204" gradientUnits="userSpaceOnUse">
<stop stop-color="#00B277"/>
<stop offset="1" stop-color="#0092E7"/>
</linearGradient>
</defs>
</svg>
