<svg width="28" height="18" viewBox="0 0 28 18" fill="none" xmlns="http://www.w3.org/2000/svg">
<path d="M11.8059 8.21723C12.4384 7.4957 12.8467 6.61125 12.9823 5.66883C13.1179 4.72642 12.975 3.76563 12.5707 2.9005C12.1664 2.03537 11.5176 1.30223 10.7013 0.788102C9.885 0.273976 8.93551 0.000453942 7.96552 0H1.44828C1.06417 0 0.695795 0.149717 0.42419 0.416216C0.152586 0.682715 0 1.04416 0 1.42105V16.5789C0 16.9558 0.152586 17.3173 0.42419 17.5838C0.695795 17.8503 1.06417 18 1.44828 18H8.44828C9.60991 17.9992 10.742 17.6409 11.6852 16.9756C12.6284 16.3102 13.3351 15.3713 13.7059 14.2912C14.0766 13.211 14.0927 12.0439 13.7518 10.9542C13.411 9.86461 12.7304 8.90734 11.8059 8.21723ZM2.89655 2.8421H7.96552C8.54168 2.8421 9.09424 3.06668 9.50165 3.46643C9.90905 3.86617 10.1379 4.40835 10.1379 4.97368C10.1379 5.53901 9.90905 6.08118 9.50165 6.48093C9.09424 6.88068 8.54168 7.10525 7.96552 7.10525H2.89655V2.8421ZM8.44828 15.1579H2.89655V9.94736H8.44828C9.15247 9.94736 9.82782 10.2218 10.3258 10.7104C10.8237 11.199 11.1034 11.8617 11.1034 12.5526C11.1034 13.2436 10.8237 13.9062 10.3258 14.3948C9.82782 14.8834 9.15247 15.1579 8.44828 15.1579ZM16.4138 2.8421C16.4138 2.46522 16.5664 2.10377 16.838 1.83727C17.1096 1.57077 17.478 1.42105 17.8621 1.42105H25.5862C25.9703 1.42105 26.3387 1.57077 26.6103 1.83727C26.8819 2.10377 27.0345 2.46522 27.0345 2.8421C27.0345 3.21899 26.8819 3.58044 26.6103 3.84694C26.3387 4.11344 25.9703 4.26315 25.5862 4.26315H17.8621C17.478 4.26315 17.1096 4.11344 16.838 3.84694C16.5664 3.58044 16.4138 3.21899 16.4138 2.8421ZM21.7241 5.6842C20.0597 5.6842 18.4634 6.33298 17.2864 7.48781C16.1095 8.64263 15.4483 10.2089 15.4483 11.8421C15.4483 13.4753 16.1095 15.0415 17.2864 16.1964C18.4634 17.3512 20.0597 18 21.7241 18C22.6734 18.0025 23.6106 17.7914 24.4638 17.383C24.639 17.304 24.7963 17.1914 24.9265 17.0519C25.0567 16.9124 25.1573 16.7488 25.2222 16.5707C25.2872 16.3926 25.3153 16.2036 25.3048 16.0147C25.2943 15.8258 25.2455 15.6408 25.1612 15.4707C25.0769 15.3006 24.9588 15.1486 24.8139 15.0239C24.669 14.8991 24.5002 14.804 24.3173 14.744C24.1344 14.6841 23.9412 14.6607 23.7489 14.675C23.5567 14.6893 23.3693 14.7412 23.1978 14.8275C22.7387 15.0464 22.2346 15.1595 21.7241 15.1579C21.0848 15.1572 20.4587 14.9789 19.9183 14.6436C19.3779 14.3083 18.9454 13.8297 18.6707 13.2631H26.5517C26.9358 13.2631 27.3042 13.1134 27.5758 12.8469C27.8474 12.5804 28 12.219 28 11.8421C27.9981 10.2095 27.3363 8.6443 26.1597 7.48988C24.9832 6.33546 23.388 5.68608 21.7241 5.6842ZM18.6707 10.421C18.9447 9.854 19.3771 9.37491 19.9176 9.03943C20.4581 8.70395 21.0846 8.52586 21.7241 8.52586C22.3637 8.52586 22.9902 8.70395 23.5307 9.03943C24.0712 9.37491 24.5036 9.854 24.7776 10.421H18.6707Z" fill="url(#paint0_linear_535_630)"/>
<defs>
<linearGradient id="paint0_linear_535_630" x1="28" y1="-2.8" x2="-0.119155" y2="-2.63765" gradientUnits="userSpaceOnUse">
<stop stop-color="#00B277"/>
<stop offset="1" stop-color="#0092E7"/>
</linearGradient>
</defs>
</svg>
