<svg width="50" height="41" viewBox="0 0 50 41" fill="none" xmlns="http://www.w3.org/2000/svg">
<path d="M24.3467 0.59295C25.4737 -0.195369 27.1969 -0.198294 28.2217 0.588067C28.2367 0.597768 28.2487 0.609711 28.2628 0.620294L43.8819 12.6135L43.878 12.6154C45.4257 13.8157 46.7276 15.2424 47.7374 16.8713C48.8414 18.6438 49.559 20.588 49.8536 22.6603C50.0044 23.7237 50.0381 24.7882 49.9561 25.8508C49.8723 26.9292 49.6637 28.0046 49.3331 29.0637C48.6752 31.1599 47.5634 33.1033 46.0157 34.8195C44.4292 36.577 42.4741 37.9946 40.2139 39.006C37.8383 40.0659 35.2641 40.6128 32.5948 40.6164C29.921 40.6208 27.3465 40.0844 24.9708 39.0324C22.7105 38.0306 20.7533 36.6192 19.1641 34.8625C17.6155 33.1534 16.5029 31.2136 15.8467 29.1174C15.5346 28.127 15.326 26.8588 15.3145 26.2062C15.3032 25.5588 15.4452 24.4822 15.4464 24.4738L5.6446 32.4953C3.93283 33.8781 1.62991 33.8756 0.546941 32.4875C-0.519938 31.1224 0.0278502 28.9654 1.72175 27.6681C1.74291 27.6514 1.76815 27.6331 1.79108 27.6164L19.7501 13.8322L9.68561 13.8517L9.68854 13.8449C7.98223 13.8387 6.86685 12.6891 7.18757 11.3029C7.49974 9.94221 9.07769 8.86532 10.7188 8.86346H10.7452L30.6016 8.84197L24.087 3.54412L24.0909 3.54022C23.077 2.70863 23.2076 1.39015 24.3467 0.59295ZM32.5899 13.8224C29.9761 13.826 27.4768 14.6915 25.5137 16.2912C24.512 17.1095 23.7005 18.0771 23.1114 19.1476C22.5117 20.2368 22.1361 21.4413 22.0294 22.7033C21.9166 23.9942 22.0873 25.2734 22.5255 26.4787C22.9726 27.7054 23.6969 28.8576 24.6837 29.8586C26.7032 31.9125 29.5311 33.0689 32.5948 33.0637C35.654 33.0574 38.4816 31.8906 40.501 29.8332C41.4878 28.8278 42.2103 27.6757 42.6583 26.4455C43.0965 25.2392 43.2664 23.9613 43.1553 22.6721C43.0442 21.4066 42.6707 20.2075 42.0684 19.1193C41.4794 18.0505 40.669 17.0865 39.669 16.2717C37.7041 14.6772 35.2065 13.8189 32.5899 13.8224ZM32.8165 17.0099C34.5889 17.01 36.2149 17.6355 37.4239 18.6584C38.655 19.6999 39.4721 21.1692 39.5665 22.8351C39.66 24.5487 38.971 26.1405 37.7628 27.3205C36.5308 28.5207 34.7786 29.2736 32.8165 29.2736C30.8543 29.2736 29.0984 28.5207 27.8673 27.3205C26.6582 26.1405 25.9712 24.5488 26.0655 22.8371C26.159 21.1695 26.9752 19.6999 28.2071 18.6584C29.4153 17.6354 31.0421 17.0099 32.8165 17.0099Z" fill="url(#paint0_linear_549_623)"/>
<defs>
<linearGradient id="paint0_linear_549_623" x1="49.9996" y1="-6.31811" x2="-0.213401" y2="-6.08867" gradientUnits="userSpaceOnUse">
<stop stop-color="#00B277"/>
<stop offset="1" stop-color="#0092E7"/>
</linearGradient>
</defs>
</svg>
