<svg width="16" height="22" viewBox="0 0 16 22" fill="none" xmlns="http://www.w3.org/2000/svg">
<path d="M14.875 1.71875H3.1875C2.36699 1.71875 1.58008 2.0447 0.999888 2.62489C0.419698 3.20508 0.09375 3.99199 0.09375 4.8125V19.25C0.09375 19.5235 0.202399 19.7858 0.395796 19.9792C0.589193 20.1726 0.851496 20.2812 1.125 20.2812H13.5C13.7735 20.2812 14.0358 20.1726 14.2292 19.9792C14.4226 19.7858 14.5312 19.5235 14.5312 19.25C14.5312 18.9765 14.4226 18.7142 14.2292 18.5208C14.0358 18.3274 13.7735 18.2188 13.5 18.2188H2.15625V17.875C2.15625 17.6015 2.2649 17.3392 2.4583 17.1458C2.65169 16.9524 2.914 16.8438 3.1875 16.8438H14.875C15.1485 16.8438 15.4108 16.7351 15.6042 16.5417C15.7976 16.3483 15.9062 16.086 15.9062 15.8125V2.75C15.9062 2.4765 15.7976 2.21419 15.6042 2.0208C15.4108 1.8274 15.1485 1.71875 14.875 1.71875ZM7.3125 3.78125H10.4062V8.85156L9.50305 8.12883C9.32014 7.98239 9.09282 7.9026 8.85852 7.9026C8.62421 7.9026 8.39689 7.98239 8.21398 8.12883L7.3125 8.85156V3.78125ZM13.8438 14.7812H3.1875C2.83613 14.7806 2.48728 14.8405 2.15625 14.9583V4.8125C2.15625 4.539 2.2649 4.27669 2.4583 4.0833C2.65169 3.8899 2.914 3.78125 3.1875 3.78125H5.25V11C5.24996 11.1943 5.30481 11.3847 5.40825 11.5492C5.51168 11.7136 5.65947 11.8456 5.83461 11.9297C6.00974 12.0139 6.20509 12.0468 6.39815 12.0248C6.5912 12.0028 6.7741 11.9267 6.92578 11.8052L8.85852 10.2584L10.793 11.8052C10.9446 11.9267 11.1276 12.0028 11.3206 12.0248C11.5137 12.0468 11.709 12.0139 11.8841 11.9297C12.0593 11.8456 12.2071 11.7136 12.3105 11.5492C12.4139 11.3847 12.4688 11.1943 12.4688 11V3.78125H13.8438V14.7812Z" fill="url(#paint0_linear_464_868)"/>
<defs>
<linearGradient id="paint0_linear_464_868" x1="15.9063" y1="-1.16875" x2="0.0260887" y2="-1.11854" gradientUnits="userSpaceOnUse">
<stop stop-color="#00B277"/>
<stop offset="1" stop-color="#0092E7"/>
</linearGradient>
</defs>
</svg>
