<svg width="32" height="32" viewBox="0 0 32 32" fill="none" xmlns="http://www.w3.org/2000/svg">
<path d="M30.4137 11.3635L14.3637 27.4135C13.9887 27.7883 13.4802 27.9988 12.95 27.9988C12.4198 27.9988 11.9113 27.7883 11.5362 27.4135L2.58372 18.4135C2.20931 18.0385 1.99902 17.5303 1.99902 17.0004C1.99902 16.4705 2.20931 15.9622 2.58372 15.5873L5.08372 13.0873C5.45855 12.714 5.96599 12.5044 6.49497 12.5044C7.02395 12.5044 7.53139 12.714 7.90622 13.0873L13 18.0273L25.095 6.08101C25.4699 5.70737 25.9776 5.49756 26.5068 5.49756C27.0361 5.49756 27.5438 5.70737 27.9187 6.08101L30.4125 8.52351C30.6 8.70935 30.7489 8.93049 30.8505 9.17416C30.9522 9.41784 31.0046 9.67923 31.0047 9.94325C31.0048 10.2073 30.9526 10.4687 30.8512 10.7125C30.7498 10.9562 30.6011 11.1775 30.4137 11.3635Z" fill="#F2F2F2"/>
</svg>
