<svg width="30" height="44" viewBox="0 0 30 44" fill="none" xmlns="http://www.w3.org/2000/svg">
<path fill-rule="evenodd" clip-rule="evenodd" d="M3.67427 15.1093C1.46231 13.6431 0 11.1046 0 8.21854C0 3.67957 3.61711 0 8.07901 0H21.921C26.3829 0 30 3.67957 30 8.21854C30 11.1046 28.5378 13.6431 26.3257 15.1093C28.5378 16.5755 30 19.1141 30 22.0001C30 26.539 26.3829 30.2186 21.921 30.2186H21.7737C19.6645 30.2186 17.7441 29.3964 16.3053 28.0499V35.7065C16.3053 40.2962 12.609 44 8.11564 44C3.66288 44 0 40.3297 0 35.7815C0 32.8955 1.46224 30.357 3.67413 28.8908C1.46224 27.4245 0 24.886 0 22.0001C0 19.1141 1.46231 16.5755 3.67427 15.1093ZM16.3053 22.0001C16.3053 25.0724 18.7536 27.5629 21.7737 27.5629H21.921C24.9411 27.5629 27.3894 25.0724 27.3894 22.0001C27.3894 18.9278 24.9411 16.4372 21.921 16.4372H21.7737C18.7536 16.4372 16.3053 18.9278 16.3053 22.0001ZM13.6947 16.4372H8.07901C5.05887 16.4372 2.61061 18.9278 2.61061 22.0001C2.61061 25.0661 5.049 27.5528 8.06063 27.5629H8.06921H13.6947V16.4372ZM8.07901 30.2186C8.07289 30.2186 8.06676 30.2186 8.06063 30.2186C5.049 30.2287 2.61061 32.7154 2.61061 35.7815C2.61061 38.8444 5.08634 41.3443 8.11564 41.3443C11.1856 41.3443 13.6947 38.8109 13.6947 35.7065V30.2186H8.07901ZM13.6947 13.7814H8.07901C5.05887 13.7814 2.61061 11.2908 2.61061 8.21854C2.61061 5.14624 5.05887 2.65569 8.07901 2.65569H13.6947V13.7814ZM21.921 13.7814H16.3053V2.65569H21.921C24.9411 2.65569 27.3894 5.14624 27.3894 8.21854C27.3894 11.2908 24.9411 13.7814 21.921 13.7814Z" fill="url(#paint0_linear_552_689)"/>
<defs>
<linearGradient id="paint0_linear_552_689" x1="30" y1="4" x2="4.24028" y2="0.593417" gradientUnits="userSpaceOnUse">
<stop stop-color="#00B277"/>
<stop offset="1" stop-color="#0092E7"/>
</linearGradient>
</defs>
</svg>
