<svg width="26" height="24" viewBox="0 0 26 24" fill="none" xmlns="http://www.w3.org/2000/svg">
<path d="M20.4092 5.45144e-06C21.1109 5.19172e-06 21.7147 -0.000413627 22.21 0.0400445C22.7205 0.0817822 23.2283 0.173979 23.7168 0.422857C24.4445 0.793661 25.0389 1.38575 25.4111 2.11622C25.6412 2.56796 25.7353 3.03908 25.7813 3.51465C25.8145 3.62904 25.834 3.74992 25.834 3.87501C25.834 3.93921 25.8274 4.00276 25.8184 4.06446C25.8329 4.45943 25.834 4.91339 25.834 5.4209V17.8291C25.834 18.5296 25.8344 19.1332 25.794 19.6279C25.7522 20.1379 25.6599 20.6456 25.4111 21.1338C25.0396 21.8627 24.4458 22.4567 23.7168 22.8281C23.2286 23.0768 22.7209 23.1692 22.2109 23.2109C21.7163 23.2514 21.1133 23.25 20.4131 23.25H5.4209C4.72042 23.25 4.11704 23.2514 3.62208 23.2109C3.11213 23.1693 2.60458 23.0769 2.11622 22.8281C1.38581 22.456 0.793663 21.8614 0.422857 21.1338C0.173959 20.6453 0.0817997 20.1374 0.0400446 19.627C-0.000439319 19.1317 5.4375e-06 18.5271 5.58031e-06 17.8252V5.42579C5.58031e-06 4.9163 0.00099944 4.4606 0.0156306 4.06446C0.00656772 4.00276 2.83054e-05 3.93921 5.58031e-06 3.87501C3.64145e-05 3.74992 0.0195335 3.62904 0.05274 3.51465C0.0987586 3.03901 0.192831 2.56788 0.422857 2.11622C0.794344 1.38713 1.38715 0.79437 2.11622 0.422857C2.60482 0.173952 3.11259 0.0817657 3.62305 0.0400445C4.11874 -0.000442299 4.72369 5.45144e-06 5.42579 5.45144e-06H20.4092ZM2.58399 5.42579V17.8252C2.58399 18.5697 2.58437 19.0514 2.61426 19.417C2.64292 19.7669 2.69202 19.897 2.72461 19.9609C2.84918 20.2052 3.04753 20.4033 3.28907 20.5264C3.3528 20.5588 3.48334 20.6072 3.83301 20.6357C4.19835 20.6656 4.67819 20.667 5.4209 20.667H20.4131C21.1561 20.667 21.6359 20.6656 22.001 20.6357C22.3502 20.6072 22.4801 20.5588 22.544 20.5264C22.7868 20.4026 22.9855 20.2038 23.1094 19.9609C23.1418 19.8973 23.1911 19.7674 23.2197 19.418C23.2496 19.0529 23.25 18.5722 23.25 17.8291V5.4209C23.25 5.33282 23.2491 5.24804 23.249 5.167H2.58497C2.58489 5.24948 2.58399 5.33601 2.58399 5.42579ZM9.41993 9.41993C9.9243 8.91555 10.7426 8.91566 11.2471 9.41993C11.7513 9.92437 11.7514 10.7427 11.2471 11.2471L9.57715 12.917L11.2471 14.5869C11.7513 15.0914 11.7514 15.9097 11.2471 16.4141C10.7427 16.9181 9.92426 16.9182 9.41993 16.4141L6.83692 13.8301C6.59487 13.5879 6.45908 13.2594 6.45899 12.917C6.45899 12.5746 6.59489 12.2461 6.83692 12.0039L9.41993 9.41993ZM14.5869 9.41993C15.0914 8.91566 15.9097 8.91555 16.4141 9.41993L18.9971 12.0039C19.5011 12.5083 19.5012 13.3258 18.9971 13.8301L16.4141 16.4141C15.9097 16.9182 15.0913 16.9181 14.5869 16.4141C14.0825 15.9097 14.0827 15.0914 14.5869 14.5869L16.2568 12.917L14.5869 11.2471C14.0825 10.7427 14.0827 9.92437 14.5869 9.41993Z" fill="url(#paint0_linear_575_674)"/>
<defs>
<linearGradient id="paint0_linear_575_674" x1="25.834" y1="-3.61667" x2="-0.110361" y2="-3.50967" gradientUnits="userSpaceOnUse">
<stop stop-color="#00B277"/>
<stop offset="1" stop-color="#0092E7"/>
</linearGradient>
</defs>
</svg>
