<svg width="28" height="29" viewBox="0 0 28 29" fill="none" xmlns="http://www.w3.org/2000/svg">
<path d="M27.0607 7.14257C27.3534 6.08144 27.4341 4.9714 27.2979 3.87803C27.1617 2.78466 26.8114 1.73016 26.2678 0.776817C26.1338 0.540689 25.941 0.344598 25.7089 0.208246C25.4768 0.0718944 25.2135 8.50494e-05 24.9455 3.2677e-05C23.7231 -0.00346706 22.5158 0.274195 21.4138 0.812254C20.3118 1.35031 19.3437 2.13484 18.5818 3.10717H16.0364C15.2745 2.13484 14.3064 1.35031 13.2044 0.812254C12.1024 0.274195 10.8951 -0.00346706 9.67273 3.2677e-05C9.40468 8.50494e-05 9.14138 0.0718944 8.90926 0.208246C8.67714 0.344598 8.48438 0.540689 8.35036 0.776817C7.80675 1.73016 7.45649 2.78466 7.32031 3.87803C7.18412 4.9714 7.26476 6.08144 7.55745 7.14257C6.9487 8.28974 6.62616 9.57141 6.61818 10.875V11.9107C6.62058 13.6495 7.19545 15.3374 8.25107 16.7049C9.30669 18.0725 10.7822 19.041 12.4422 19.4559C11.9608 20.3121 11.7081 21.2815 11.7091 22.2679V22.7857H9.67273C8.99763 22.7857 8.35018 22.5129 7.87282 22.0273C7.39545 21.5418 7.12727 20.8832 7.12727 20.1964C7.12559 18.6862 6.53505 17.2383 5.48521 16.1704C4.43537 15.1024 3.01197 14.5017 1.52727 14.5C1.12221 14.5 0.733747 14.6637 0.447328 14.955C0.160909 15.2464 0 15.6416 0 16.0536C0 16.4656 0.160909 16.8608 0.447328 17.1521C0.733747 17.4435 1.12221 17.6072 1.52727 17.6072C2.20237 17.6072 2.84982 17.88 3.32718 18.3655C3.80455 18.8511 4.07273 19.5097 4.07273 20.1964C4.07441 21.7067 4.66495 23.1546 5.71479 24.2225C6.76463 25.2904 8.18803 25.8911 9.67273 25.8929H11.7091V27.4464C11.7091 27.8585 11.87 28.2536 12.1564 28.545C12.4428 28.8363 12.8313 29 13.2364 29C13.6414 29 14.0299 28.8363 14.3163 28.545C14.6027 28.2536 14.7636 27.8585 14.7636 27.4464V22.2679C14.7636 21.5811 15.0318 20.9226 15.5092 20.437C15.9865 19.9514 16.634 19.6786 17.3091 19.6786C17.9842 19.6786 18.6316 19.9514 19.109 20.437C19.5864 20.9226 19.8545 21.5811 19.8545 22.2679V27.4464C19.8545 27.8585 20.0155 28.2536 20.3019 28.545C20.5883 28.8363 20.9768 29 21.3818 29C21.7869 29 22.1753 28.8363 22.4618 28.545C22.7482 28.2536 22.9091 27.8585 22.9091 27.4464V22.2679C22.9101 21.2815 22.6574 20.3121 22.176 19.4559C23.836 19.041 25.3115 18.0725 26.3671 16.7049C27.4227 15.3374 27.9976 13.6495 28 11.9107V10.875C27.992 9.57141 27.6695 8.28974 27.0607 7.14257ZM24.9455 11.9107C24.9455 13.1468 24.4627 14.3323 23.6035 15.2064C22.7442 16.0804 21.5788 16.5714 20.3636 16.5714H14.2545C13.0394 16.5714 11.874 16.0804 11.0147 15.2064C10.1555 14.3323 9.67273 13.1468 9.67273 11.9107V10.875C9.68578 9.94923 9.95627 9.04612 10.4529 8.2702C10.6112 8.06171 10.7131 7.81468 10.7484 7.55369C10.7836 7.29271 10.7511 7.02688 10.654 6.78266C10.2159 5.63105 10.1978 4.3579 10.6031 3.19391C11.289 3.32245 11.9414 3.59342 12.5198 3.98991C13.0981 4.38641 13.5899 4.89991 13.9644 5.49837C14.1024 5.71777 14.2925 5.89832 14.5172 6.02343C14.7418 6.14853 14.9937 6.21417 15.2498 6.21431H19.3671C19.6234 6.21439 19.8756 6.14885 20.1005 6.02374C20.3253 5.89862 20.5156 5.71795 20.6538 5.49837C21.0282 4.89976 21.5199 4.38614 22.0982 3.98962C22.6766 3.59311 23.3291 3.32222 24.0151 3.19391C24.4203 4.3579 24.4023 5.63105 23.9642 6.78266C23.871 7.02871 23.8409 7.29484 23.8768 7.55599C23.9126 7.81714 24.0132 8.0647 24.1691 8.27538C24.6636 9.05017 24.9327 9.95136 24.9455 10.875V11.9107Z" fill="url(#paint0_linear_535_626)"/>
<defs>
<linearGradient id="paint0_linear_535_626" x1="28" y1="-4.51111" x2="-0.119731" y2="-4.41034" gradientUnits="userSpaceOnUse">
<stop stop-color="#00B277"/>
<stop offset="1" stop-color="#0092E7"/>
</linearGradient>
</defs>
</svg>
