<svg width="37" height="41" viewBox="0 0 37 41" fill="none" xmlns="http://www.w3.org/2000/svg">
<path d="M32.8584 36.8955L18.0537 41L3.29004 36.9014L0 0L36.1514 0L32.8584 36.8955ZM7.78125 24L8.26465 30.6855L17.6084 33.2627L17.6084 28.5908L12.6943 27.1416L12.3721 24H7.78125ZM9.23145 4.8291L7.70117 21.4219H23.248L22.6035 27.2217L17.6094 28.5908L17.6094 33.2627L26.873 30.7656L28.2422 16.75H12.7754L13.501 9.74219L17.6875 9.74219L23.084 9.98437L23.4873 14.0928H28.3203L27.3535 4.8291L9.23145 4.8291Z" fill="url(#paint0_linear_549_671)"/>
<defs>
<linearGradient id="paint0_linear_549_671" x1="36.1516" y1="-6.37778" x2="-0.154666" y2="-6.25895" gradientUnits="userSpaceOnUse">
<stop stop-color="#00B277"/>
<stop offset="1" stop-color="#0092E7"/>
</linearGradient>
</defs>
</svg>
