<svg width="28" height="28" viewBox="0 0 28 28" fill="none" xmlns="http://www.w3.org/2000/svg">
<path d="M25.4074 0H2.59259C1.90499 0 1.24556 0.273147 0.759353 0.759353C0.273147 1.24556 0 1.90499 0 2.59259V25.4074C0 26.095 0.273147 26.7544 0.759353 27.2406C1.24556 27.7269 1.90499 28 2.59259 28H25.4074C26.095 28 26.7544 27.7269 27.2406 27.2406C27.7269 26.7544 28 26.095 28 25.4074V2.59259C28 1.90499 27.7269 1.24556 27.2406 0.759353C26.7544 0.273147 26.095 0 25.4074 0ZM24.8889 24.8889H3.11111V3.11111H24.8889V24.8889ZM11.9259 20.2222V12.963C11.9262 12.6397 12.0272 12.3245 12.2149 12.0613C12.4026 11.7981 12.6676 11.5999 12.9731 11.4943C13.2787 11.3886 13.6095 11.3808 13.9197 11.4719C14.2299 11.5629 14.504 11.7484 14.7039 12.0024C15.494 11.5883 16.3776 11.385 17.2692 11.4122C18.1608 11.4394 19.0304 11.6961 19.7938 12.1577C20.5572 12.6192 21.1886 13.2699 21.627 14.0468C22.0654 14.8237 22.2959 15.7005 22.2963 16.5926V20.2222C22.2963 20.6348 22.1324 21.0304 21.8407 21.3222C21.549 21.6139 21.1533 21.7778 20.7407 21.7778C20.3282 21.7778 19.9325 21.6139 19.6408 21.3222C19.3491 21.0304 19.1852 20.6348 19.1852 20.2222V16.5926C19.1852 16.0425 18.9667 15.515 18.5777 15.126C18.1887 14.737 17.6612 14.5185 17.1111 14.5185C16.561 14.5185 16.0335 14.737 15.6445 15.126C15.2556 15.515 15.037 16.0425 15.037 16.5926V20.2222C15.037 20.6348 14.8731 21.0304 14.5814 21.3222C14.2897 21.6139 13.894 21.7778 13.4815 21.7778C13.0689 21.7778 12.6733 21.6139 12.3815 21.3222C12.0898 21.0304 11.9259 20.6348 11.9259 20.2222ZM9.85185 12.963V20.2222C9.85185 20.6348 9.68796 21.0304 9.39624 21.3222C9.10452 21.6139 8.70886 21.7778 8.2963 21.7778C7.88374 21.7778 7.48808 21.6139 7.19635 21.3222C6.90463 21.0304 6.74074 20.6348 6.74074 20.2222V12.963C6.74074 12.5504 6.90463 12.1547 7.19635 11.863C7.48808 11.5713 7.88374 11.4074 8.2963 11.4074C8.70886 11.4074 9.10452 11.5713 9.39624 11.863C9.68796 12.1547 9.85185 12.5504 9.85185 12.963ZM6.22222 7.77778C6.22222 7.36756 6.34386 6.96656 6.57177 6.62548C6.79967 6.2844 7.1236 6.01856 7.50258 5.86158C7.88157 5.7046 8.2986 5.66353 8.70093 5.74356C9.10326 5.82358 9.47282 6.02112 9.76289 6.31119C10.053 6.60125 10.2505 6.97081 10.3305 7.37315C10.4105 7.77548 10.3695 8.1925 10.2125 8.57149C10.0555 8.95048 9.78967 9.2744 9.44859 9.50231C9.10751 9.73021 8.70651 9.85185 8.2963 9.85185C7.74622 9.85185 7.21867 9.63333 6.8297 9.24437C6.44074 8.8554 6.22222 8.32786 6.22222 7.77778Z" fill="url(#paint0_linear_535_624)"/>
<defs>
<linearGradient id="paint0_linear_535_624" x1="28.9914" y1="2.25508" x2="-1.16793" y2="-9.06655" gradientUnits="userSpaceOnUse">
<stop stop-color="#00B277"/>
<stop offset="1" stop-color="#0092E7"/>
</linearGradient>
</defs>
</svg>
