<svg width="51" height="28" viewBox="0 0 51 28" fill="none" xmlns="http://www.w3.org/2000/svg">
<path d="M38.4424 12.1738L45.0498 0.132812V0.0361328H50.8643V27.2793H45.0498V13.6816L37.4316 27.2793H31.9883V5.29297H27.9355L31.7236 0.0449219H31.9883V0.0361328H38.4424V12.1738ZM29.6387 0.0146484L25.6719 5.26172H18.5137L17.1787 6.55469V20.6709L18.5137 22.001H24.6904V17.1279H20.749L20.7539 11.8799H24.6904V11.8779H28.7305L29.9424 13.0859V15.9014L29.9512 17.1279H29.9424V27.2402H26.3623V27.249H14.3594L10.2422 23.1465V4.11621L14.3594 0.0146484H29.6387ZM7.89648 4.10254V23.1396L12.0146 27.2432H0V22.0303H3.04199L2.96777 5.21191H0V0H12.0146L7.89648 4.10254Z" fill="url(#paint0_linear_452_912)"/>
<defs>
<linearGradient id="paint0_linear_452_912" x1="50.8643" y1="-4.24343" x2="-0.215711" y2="-3.88992" gradientUnits="userSpaceOnUse">
<stop stop-color="#00B277"/>
<stop offset="1" stop-color="#0092E7"/>
</linearGradient>
</defs>
</svg>
