<svg width="45" height="45" viewBox="0 0 45 45" fill="none" xmlns="http://www.w3.org/2000/svg">
<path d="M37.1685 0C40.053 0.546811 42.5265 2.08449 43.9357 4.69744C44.5009 5.74702 44.6954 6.69752 45 7.83151V37.1685C44.2954 41.3778 41.0953 44.5559 36.8088 45H8.18749C3.82401 44.5743 0.444055 41.1613 0 36.8125L0.0146795 8.06271C0.381667 4.06989 3.82034 0.447725 7.82784 0H37.1648H37.1685ZM9.82425 10.9656H6.26448L5.69565 21.5055H8.11776L8.40401 14.2428C8.771 14.1364 8.82238 14.841 8.89945 15.0979C9.47929 17.0282 9.97472 18.9879 10.5582 20.9183L12.8666 20.944L15.0245 13.8134L15.2373 21.5055H17.8026L17.2337 10.9656H13.8868L11.7509 17.52L9.82792 10.9656H9.82425ZM24.5625 10.9656C22.878 10.727 20.6797 11.1417 18.9366 10.9656V21.5055H23.7074C24.4524 21.5055 25.9644 20.8706 26.4855 20.2944C27.9608 18.6576 27.9865 14.0776 26.8158 12.2904C26.4561 11.7436 25.201 11.0573 24.5661 10.9656H24.5625ZM35.3152 11.5344C34.3317 11.3252 33.3041 11.3252 32.3243 11.5344V14.5254H29.5462C28.7425 14.5254 28.9626 17.6594 29.403 17.6594H32.3243V20.7935C32.7279 20.999 35.3152 21.0798 35.3152 20.5807V17.6594H38.2364C38.6768 17.6594 38.897 14.5254 38.0933 14.5254H35.3152V11.5344ZM12.0996 26.2066C12.3528 25.5937 12.918 25.0506 13.3804 24.5698C11.9344 22.9184 8.74164 22.9771 7.06451 24.2395C5.05709 25.7515 5.09012 30.8893 6.42595 32.805C7.52324 34.3794 10.0848 34.4968 11.7252 33.8766C11.9821 33.7812 13.2666 33.0215 13.3547 32.8747C13.6703 32.3353 12.3234 31.4618 12.0298 31.0508C11.439 31.9206 9.43892 32.5298 8.67925 31.693C7.91959 30.8563 7.94528 26.8121 8.67925 25.9864C9.51598 25.0469 11.2115 25.579 12.0996 26.2029V26.2066ZM34.6436 25.8212C35.2565 25.2928 36.6474 25.5093 37.3483 25.8102C37.5245 25.8873 37.7703 26.1992 37.807 26.1992C37.9171 26.1992 39.1833 24.6946 39.1355 24.445C39.0438 23.9606 37.4107 23.4285 36.9373 23.3698C32.9224 22.9 31.3994 25.124 31.3811 28.8599C31.3627 32.3316 32.5922 34.5225 36.3795 34.1739C37.0951 34.1078 39.4585 33.3004 39.3117 32.405C39.297 32.3096 38.0382 31.3958 37.9502 31.0435C36.9703 32.0564 34.8491 32.761 34.2473 31.0435C33.9096 30.0746 33.8436 26.5038 34.6436 25.8176V25.8212ZM13.6666 34.0381H16.1585C16.5548 33.4986 16.6172 32.7023 16.8154 32.06L20.2761 32.038C20.4742 32.0931 20.6577 33.8252 21.0027 34.0418H23.4945L20.1329 23.4945C19.5568 23.6083 17.2924 23.311 17.0135 23.645L13.6703 34.0454L13.6666 34.0381ZM27.0543 23.4982H24.6322V34.0381H30.9003V31.9022H27.0543V23.4982Z" fill="#21AF92"/>
<path d="M9.82466 10.9656L11.7477 17.52L13.8835 10.9656H17.2305L17.7993 21.5055H15.2341L15.0212 13.8134L12.8633 20.944L10.555 20.9183C9.97513 18.988 9.47969 17.0282 8.89618 15.0979C8.81912 14.841 8.76407 14.1364 8.40075 14.2428L8.1145 21.5055H5.69238L6.26121 10.9656H9.82099H9.82466Z" fill="#FEFFFF"/>
<path d="M24.5622 10.9657C25.1971 11.0538 26.4559 11.7437 26.8118 12.2905C27.9862 14.0778 27.9568 18.6578 26.4815 20.2945C25.9604 20.8707 24.4521 21.5056 23.7035 21.5056H18.9326V10.9657C20.6758 11.1419 22.8741 10.7272 24.5585 10.9657H24.5622ZM23.8502 13.1016C23.175 12.9841 22.2135 13.1897 21.5015 13.1016V19.2266H23.8502C24.2393 19.2266 24.7751 18.3311 24.8558 17.9532C25.0686 16.9366 25.2008 13.3401 23.8502 13.1016Z" fill="#F2F2F2"/>
<path d="M13.6668 34.0381L17.01 23.6376C17.2889 23.3037 19.5532 23.6009 20.1294 23.4872L23.491 34.0344H20.9992C20.6542 33.8179 20.4707 32.0857 20.2725 32.0306L16.8118 32.0527C16.6137 32.6949 16.5513 33.4913 16.1549 34.0307H13.6631L13.6668 34.0381ZM19.7918 30.0489L18.5807 26.0598C18.2284 27.3809 17.6706 28.6947 17.5128 30.0489H19.7918Z" fill="#F2F2F2"/>
<path d="M35.3154 11.5344V14.5254H38.0935C38.8972 14.5254 38.677 17.6594 38.2366 17.6594H35.3154V20.5807C35.3154 21.0798 32.7281 20.999 32.3244 20.7935V17.6594H29.4032C28.9628 17.6594 28.7427 14.5254 29.5464 14.5254H32.3244V11.5344C33.3043 11.3252 34.3319 11.3252 35.3154 11.5344Z" fill="#067F68"/>
<path d="M12.0992 26.2066C11.211 25.5827 9.51923 25.0505 8.67883 25.99C7.94485 26.8158 7.93751 30.8783 8.67883 31.6967C9.42014 32.5151 11.4386 31.9242 12.0294 31.0545C12.3267 31.4655 13.6735 32.3389 13.3542 32.8784C13.2662 33.0252 11.9817 33.7848 11.7248 33.8803C10.0844 34.5005 7.52282 34.383 6.42553 32.8087C5.08969 30.8893 5.05299 25.7552 7.06408 24.2432C8.74122 22.9807 11.9303 22.922 13.3799 24.5735C12.9175 25.0542 12.3524 25.601 12.0992 26.2102V26.2066Z" fill="#FEFFFF"/>
<path d="M34.6436 25.8213C33.8472 26.5076 33.9096 30.082 34.2472 31.0472C34.8491 32.7684 36.9703 32.0638 37.9501 31.0472C38.0382 31.3995 39.297 32.3133 39.3117 32.4087C39.4585 33.3005 37.0951 34.1116 36.3794 34.1776C32.5921 34.5263 31.3627 32.3353 31.3811 28.8636C31.3994 25.1277 32.9224 22.9001 36.9373 23.3735C37.4107 23.4286 39.0474 23.9644 39.1355 24.4488C39.1832 24.6983 37.9171 26.203 37.807 26.203C37.7703 26.203 37.5244 25.8874 37.3483 25.814C36.6473 25.5131 35.2564 25.2965 34.6436 25.825V25.8213Z" fill="#FEFFFF"/>
<path d="M27.0542 23.4981V31.9021H30.9002V34.038H24.6357V23.4981H27.0542Z" fill="#F2F2F2"/>
<path d="M23.8507 13.1014C25.2012 13.34 25.0691 16.9365 24.8562 17.953C24.7755 18.3347 24.2397 19.2265 23.8507 19.2265H21.502V13.1014C22.2176 13.1895 23.1754 12.984 23.8507 13.1014Z" fill="#21AF92"/>
<path d="M19.7917 30.049H17.5127C17.6705 28.6948 18.2283 27.381 18.5806 26.0598L19.7917 30.049Z" fill="#27B093"/>
</svg>
