<svg width="42" height="44" viewBox="0 0 42 44" fill="none" xmlns="http://www.w3.org/2000/svg">
<path d="M32.7589 0H9.23814C4.13606 0 0 4.13587 0 9.23772V16.6677C0 21.7695 4.13606 25.9054 9.23814 25.9054H32.7589C37.8609 25.9054 41.997 21.7695 41.997 16.6677V9.23772C41.997 4.13587 37.8609 0 32.7589 0Z" fill="#FDFDFD"/>
<path d="M11.1514 8.60044C11.1559 8.75059 11.1464 8.90224 11.1514 9.05238C11.1705 9.65347 11.164 10.2365 11.2011 10.8356C11.2167 11.0891 11.1318 11.5009 11.3006 11.6902C11.4106 11.8133 11.6486 11.7937 11.6034 12.0151H9.82064C9.80307 12.0151 9.73376 11.9388 9.74531 11.8901C9.76239 11.8203 10.1044 11.8107 10.1481 11.4386C10.2234 10.7954 10.1526 10.0708 10.1451 9.43101C10.139 8.93689 10.1541 8.44126 10.1471 7.94763L9.96728 7.99333C9.39077 9.06243 8.89914 10.1908 8.28949 11.2368C8.13431 11.2744 7.90632 11.3091 7.7853 11.1881L6.20543 8.24843C6.15973 8.15352 5.97945 8.21177 5.97945 8.27353V11.3869C5.97945 11.4271 6.10801 11.6732 6.1517 11.7168C6.26921 11.8354 6.4741 11.8012 6.43141 12.0146H4.82443C4.77923 11.7801 5.0469 11.8163 5.14834 11.6606C5.21513 11.5582 5.26685 11.3161 5.2784 11.1881C5.40546 9.78353 5.17847 8.19068 5.2774 6.76605C5.27439 6.64202 5.21864 6.54259 5.12423 6.46677C5.01677 6.38039 4.87816 6.44316 4.92487 6.24029H6.20543L8.15289 9.82019C8.35326 9.9156 8.46023 9.68109 8.54861 9.53747C8.89663 8.97455 9.28381 8.11887 9.57909 7.50473C9.67903 7.29734 10.0486 6.29302 10.1807 6.24833C10.2932 6.21016 11.0063 6.20665 11.044 6.32214C11.1128 7.04073 11.0776 7.75832 11.0992 8.47842C11.1012 8.54319 11.1514 8.59341 11.1514 8.59994V8.60044Z" fill="#1E5276"/>
<path d="M31.1383 8.44982C31.1257 8.86661 31.2237 8.58138 31.3105 8.49853C32.5158 7.34607 34.054 8.67981 34.054 10.1321C34.054 11.3633 32.9135 12.5459 31.6711 12.0096C31.4662 11.9212 31.3392 11.7339 31.1383 11.6636V13.2957C31.1383 13.4202 31.5255 13.5523 31.54 13.5723C31.5677 13.6115 31.4928 13.7225 31.4647 13.7225H30.4101C30.4046 13.7225 30.3348 13.6527 30.3348 13.6472V8.72601C30.3348 8.68232 30.2304 8.5141 30.1877 8.47191C30.0963 8.38153 29.8035 8.33784 29.9828 8.22334C30.0737 8.1656 31.0138 8.15354 31.1383 8.29917C31.1338 8.34838 31.1398 8.40011 31.1383 8.44982ZM32.1748 8.36696C31.0866 8.40864 31.0685 9.90106 31.1363 10.6859C31.2041 11.4708 31.9498 12.2336 32.692 11.7359C33.1621 11.4211 33.1425 10.0487 33.0983 9.52745C33.0541 9.00621 32.8322 8.34185 32.1748 8.36696Z" fill="#282829"/>
<path d="M28.0742 8.04805C28.2415 8.04704 28.5157 8.0842 28.6794 8.12036C28.7507 8.13592 29.2072 8.28004 29.2293 8.29913C29.3001 8.35938 29.4181 8.76362 29.4296 8.87711C29.517 9.73078 29.3473 10.6999 29.4527 11.5652C29.7114 12.0467 29.8962 11.1855 29.9328 11.1614C30.1819 10.9972 30.1221 11.4532 30.0574 11.6129C29.8048 12.2351 28.8978 12.341 28.6502 11.6621C28.4228 11.754 28.245 11.9443 28.0095 12.0256C27.0854 12.3435 25.9033 11.9242 26.3146 10.7833C26.4884 10.3017 26.864 10.1531 27.2708 9.90604C27.3029 9.90202 27.3401 9.91156 27.3712 9.90604C27.5856 9.86888 27.7895 9.79305 28.0049 9.76141C28.2088 9.73179 28.4273 9.79807 28.6196 9.69814C28.6568 8.8284 28.7442 8.21024 27.6514 8.35386C27.4741 8.37696 26.9242 8.58536 27.2702 8.75157C27.2838 8.7581 27.3069 8.74504 27.3205 8.75157L27.4209 8.95243C27.4189 9.03579 27.4189 9.12016 27.4209 9.20351C27.1522 9.73681 26.4994 9.56557 26.5702 8.93285C26.5787 8.85552 26.7927 8.41462 26.8183 8.40006C26.8354 8.39002 26.9142 8.42366 26.9549 8.3865C26.981 8.3629 26.9639 8.30314 26.9689 8.29963C27.0131 8.2695 27.8352 8.05658 27.9231 8.04855C27.9723 8.04403 28.024 8.04855 28.0737 8.04855L28.0742 8.04805ZM28.6266 10.9857C28.6573 10.7411 28.6266 10.3921 28.6266 10.132C28.6266 9.9914 27.9346 10.0888 27.8106 10.1195C27.2893 10.248 26.8826 10.717 27.096 11.2614C27.3792 11.9835 28.5368 11.6987 28.6266 10.9857Z" fill="#282829"/>
<path d="M27.4217 8.95215L27.3213 8.75128C27.5759 8.87431 27.4247 8.83816 27.4217 8.95215Z" fill="#F2F2F2"/>
<path d="M13.5116 30.0428L15.0181 31.4242C15.0839 31.4659 15.1532 31.4659 15.1934 31.3981C15.8291 29.4954 16.4252 27.5802 17.052 25.6745C17.5145 24.2684 17.9197 22.6228 18.4962 21.2941C18.8021 20.5896 19.5558 20.1768 20.1856 20.7829C20.4824 21.0687 20.4171 21.3911 20.4939 21.7215C20.8896 23.4268 21.0739 25.2918 21.4963 27.0298C21.5194 27.1242 21.5224 27.3924 21.5967 27.4315C21.5204 27.6525 21.6133 27.9698 21.6534 28.2059C21.7027 28.4966 21.7589 28.8034 21.8106 29.0967C22.0346 30.3656 22.2606 31.4684 22.4881 32.7424C22.6121 33.4369 22.6578 34.0269 22.805 34.7269C22.814 34.7696 22.8974 34.7626 22.8963 34.7857C22.8933 34.8384 22.7864 35.0337 22.9285 35.0644C23.0545 35.092 23.1585 34.6717 23.1891 34.5727C23.7948 32.6399 24.5018 30.2974 24.9111 28.3354C24.9382 28.2049 24.9819 28.0698 25.0115 27.9337C25.1808 27.5541 25.3189 27.1302 25.3857 26.726C25.6774 26.1299 25.7412 25.0066 26.0445 24.4723C26.4488 23.7617 27.4808 23.9094 27.8479 24.6204C28.4304 25.7488 28.7488 27.2628 29.3213 28.4238C29.2751 29.395 29.2711 30.3877 29.2776 31.376C29.2781 31.485 29.3574 31.9304 29.2826 31.9786C29.0139 32.1518 28.6082 31.7446 28.4555 31.5452C28.1773 30.6127 27.5571 29.5943 27.305 28.6784C27.2598 28.5142 27.3186 28.1325 27.0951 28.1325C26.9695 28.1325 26.9254 28.4163 26.8907 28.5378C25.8532 32.2066 24.8328 36.0506 23.6767 39.7359C23.618 39.9237 23.6873 39.9795 23.5045 40.212C22.9732 40.8884 22.119 40.7136 21.8106 39.9473C20.979 35.5645 20.2955 31.152 19.474 26.7672C19.4449 26.611 19.2781 25.6941 19.2108 25.6745C19.1435 25.6549 19.0682 25.678 19.0506 25.7568C18.8829 26.3765 18.6866 26.9977 18.4837 27.6083C17.9463 29.2272 17.4135 30.7272 16.8903 32.3421C16.6613 33.0492 16.5879 34.3307 15.5926 34.3628C15.2411 34.3739 15.1211 34.1896 14.8172 34.1108C14.2719 33.6242 13.8023 33.0201 13.2605 32.5541C13.3212 32.4195 12.8979 32.0519 12.8336 32.0519H11.5531C11.4536 31.8576 11.5516 31.7089 11.5556 31.5266C11.5646 31.0812 11.6118 30.5464 11.4531 30.1442C11.7288 30.1372 12.0075 30.1532 12.2837 30.1442C12.3807 30.1412 12.4851 30.1954 12.457 30.0438C12.5574 30.0453 12.6579 30.0412 12.7583 30.0438C12.9762 30.0488 13.0933 30.0523 13.3107 30.0438C13.376 30.0412 13.4463 30.0392 13.5116 30.0438V30.0428Z" fill="white"/>
<path d="M25.0107 27.9337C25.0122 27.9282 24.9545 27.8935 24.9685 27.8237C25.1845 26.7376 25.6776 25.5766 25.9337 24.4869C26.3671 23.692 27.4157 23.6624 27.8922 24.4246L30.0285 29.9213L34.1007 30.1432L34.1519 31.8732C34.1153 32.1659 33.2631 32.0389 33.0185 32.0499C31.9152 32.0991 30.7592 32.1584 29.6559 32.1423C29.4716 32.1398 28.9955 32.1142 28.8408 32.0635C28.6681 32.0067 28.4381 31.7617 28.3477 31.6025C27.9188 30.8498 27.6919 29.7254 27.3082 28.926L27.0702 28.4369L23.9416 39.4949C23.8306 39.7094 23.8185 40.0011 23.6975 40.205C23.2159 41.017 22.0157 40.898 21.6983 40.0091C21.0947 36.6216 20.4529 33.234 19.8498 29.856C19.6223 28.581 19.4485 27.2945 19.1849 26.0265C19.1121 26.0561 19.0779 26.2389 19.0503 26.3183C18.405 28.1682 17.821 30.0453 17.1978 31.9033C17.1596 32.0173 17.1425 32.07 17.1109 32.1639C16.788 33.117 16.6177 34.8043 15.2166 34.4392C15.0037 34.3835 14.9445 34.2258 14.8164 34.1113C15.1202 34.1901 15.2402 34.3749 15.5918 34.3634C16.5876 34.3312 16.6604 33.0497 16.8894 32.3427C17.4127 30.7282 17.9455 29.2283 18.4828 27.6088C18.6857 26.9982 18.8821 26.377 19.0498 25.7574C19.0669 25.6785 19.1407 25.6544 19.21 25.675C19.2793 25.6956 19.444 26.6115 19.4731 26.7677C20.2952 31.1521 20.9787 35.5645 21.8098 39.9479C22.1181 40.7137 22.9723 40.8889 23.5037 40.2125C23.6865 39.98 23.6172 39.9238 23.6759 39.7365C24.8319 36.0511 25.8524 32.2071 26.8899 28.5383C26.924 28.4168 26.9682 28.1331 27.0943 28.1331C27.3182 28.1331 27.259 28.5147 27.3042 28.6789C27.5563 29.5949 28.1765 30.6132 28.4547 31.5458C28.6068 31.7446 29.0131 32.1524 29.2818 31.9791C29.3561 31.9309 29.2772 31.4855 29.2767 31.3765C29.2702 30.3883 29.2742 29.3955 29.3204 28.4243C28.7474 27.2633 28.4296 25.7493 27.847 24.621C27.4799 23.9099 26.448 23.7623 26.0437 24.4728C25.7399 25.0066 25.6766 26.1305 25.3848 26.7265C25.318 27.1308 25.1799 27.5546 25.0107 27.9342V27.9337Z" fill="#69CBFF"/>
<path d="M12.4566 30.0427C12.4848 30.1944 12.3798 30.1401 12.2834 30.1431C12.0072 30.1522 11.7285 30.1361 11.4528 30.1431C11.6115 30.5459 11.5643 31.0807 11.5552 31.5256C11.5517 31.7079 11.4533 31.8565 11.5527 32.0509H12.8333C12.8976 32.0509 13.3209 32.4184 13.2601 32.553C13.1883 32.4912 12.775 32.1608 12.7318 32.1523C10.9812 32.1242 9.19999 32.1769 7.45943 32.0514C7.29973 32.0398 6.92159 32.1071 6.86685 31.9901L6.86133 30.1376C8.7189 29.9674 10.592 30.0703 12.4566 30.0422V30.0427Z" fill="#69CBFF"/>
<path d="M13.5112 30.0426C14.1832 30.0878 14.5272 31.0811 15.1172 31.2473L18.5135 20.9591C18.9338 20.2324 19.8714 20.136 20.3906 20.828C20.6849 21.2202 20.703 22.0844 20.7959 22.5821C21.058 23.9886 21.4086 25.4358 21.5909 26.8604C21.6029 26.9559 21.6431 27.0573 21.4954 27.0297C21.0731 25.2912 20.8888 23.4262 20.4931 21.7213C20.4162 21.3909 20.482 21.0685 20.1847 20.7828C19.555 20.1767 18.8012 20.5895 18.4954 21.294C17.9189 22.6227 17.5136 24.2683 17.0511 25.6743C16.4244 27.5795 15.8283 29.4953 15.1925 31.398C15.1524 31.4658 15.0831 31.4658 15.0173 31.4241L13.5107 30.0426H13.5112Z" fill="#89C4E3"/>
<path d="M21.5963 27.4315C21.6159 27.4421 21.6867 27.4024 21.6977 27.4647C22.0668 29.8906 22.5871 32.2894 22.9527 34.7128L24.9107 28.3354C24.5014 30.2973 23.7943 32.6394 23.1887 34.5727C23.1576 34.6716 23.0536 35.0915 22.9281 35.0643C22.7859 35.0332 22.8929 34.8384 22.8959 34.7856C22.8974 34.7625 22.8136 34.7696 22.8045 34.7269C22.6574 34.0269 22.6117 33.4368 22.4877 32.7424C22.2602 31.4689 22.0342 30.3661 21.8102 29.0967C21.7585 28.8034 21.7022 28.4966 21.653 28.2058C21.6134 27.9698 21.5204 27.6525 21.5963 27.4315Z" fill="#89C4E3"/>
<path d="M13.3102 30.0427C13.0928 30.0512 12.9758 30.0477 12.7578 30.0427C12.9029 29.9578 13.1681 29.9588 13.3102 30.0427Z" fill="#89C4E3"/>
<path d="M17.6794 8.3997C17.7342 8.52474 17.6714 8.64124 17.8803 8.60107C17.8311 8.03765 17.9471 7.36676 17.8818 6.8169C17.8703 6.72149 17.8326 6.59796 17.7733 6.52364C17.6563 6.3765 17.4826 6.45082 17.5288 6.24042H18.6587C18.7139 6.24042 18.7305 6.36294 18.7365 6.41366C18.8792 7.62788 18.6813 9.2127 18.732 10.4857C18.736 10.5926 18.7772 10.6865 18.7837 10.7855C18.8073 11.1435 18.6818 11.4719 18.9826 11.7411C19.0715 11.8209 19.2277 11.8536 19.2362 11.8651C19.2653 11.9038 19.188 12.0153 19.1609 12.0153H17.9305C17.9401 11.2695 17.8281 11.6426 17.4936 11.8546C16.9442 12.2016 16.2337 12.1935 15.7204 11.7898C15.3473 11.4965 15.169 11.0858 14.9918 10.6599C14.8994 10.6383 14.6026 11.1435 14.5152 11.2369C14.005 11.7802 13.0433 12.2744 12.294 12.0524C11.5056 11.8189 11.586 10.7744 11.7677 10.1467C12.0374 9.21672 13.0041 8.10644 14.0406 8.0974C14.9104 8.08937 15.1153 8.79992 14.6146 9.42813C14.1933 9.9569 13.4501 10.1497 12.8198 10.2949C12.5065 10.3672 12.3448 10.2426 12.3036 10.6825C12.1825 11.9751 13.2627 11.7787 14.0296 11.2535C14.2932 11.0727 14.8647 10.5158 14.944 10.2095C14.9908 10.0287 14.9551 9.84542 14.9903 9.65309C15.0294 9.43566 15.2167 8.89031 15.3192 8.7015C15.3212 8.69748 15.3799 8.70953 15.402 8.68392C15.4272 8.6543 15.4146 8.60559 15.4196 8.60107C15.8495 8.21842 16.5771 8.01153 17.1386 8.16268C17.3179 8.21089 17.5353 8.38916 17.6794 8.40021V8.3997ZM17.5112 8.66786C17.0663 8.17323 16.2367 8.21139 15.9856 8.89031C15.7952 9.40503 15.7952 11.0998 16.1036 11.5568C16.5566 12.2292 17.6242 11.7119 17.8055 11.0611C17.9677 10.4791 17.932 9.13537 17.5112 8.66735V8.66786ZM12.4567 10.1065C13.1543 10.0935 14.2229 9.58681 14.2144 8.77532C14.2109 8.43887 14.0005 8.35853 13.6991 8.41075C13.1809 8.50064 12.4994 9.60037 12.4567 10.1065Z" fill="#1E5276"/>
<path d="M35.2804 9.80558C35.2638 9.8101 35.1915 9.88342 35.181 9.90702C35.0916 10.0978 35.1996 10.9415 35.2699 11.1725C35.5722 12.1627 36.8839 11.999 37.3866 11.2588C37.4975 11.0951 37.592 10.6336 37.6181 10.6116C37.6517 10.5829 37.843 10.6045 37.8621 10.6889C37.8903 10.8114 37.6306 11.3859 37.5367 11.5099C36.4269 12.9777 33.6277 11.7329 34.3499 9.47818C34.9585 7.5775 37.593 7.70304 37.8119 9.43348C37.821 9.50429 37.839 9.80609 37.7411 9.80609H35.2804V9.80558ZM35.2804 9.50429C35.4722 9.56405 36.5379 9.50429 36.8372 9.50429C36.9371 9.50429 36.9246 9.0659 36.9135 8.97602C36.8146 8.17809 35.6651 8.13038 35.3126 8.83391C35.2468 8.96547 35.1147 9.45307 35.2804 9.50479V9.50429Z" fill="#282829"/>
<path d="M19.8391 8.29933C20.2439 8.16626 20.5622 8.03469 21.0072 8.11052C21.2071 8.14466 21.546 8.42437 21.6972 8.32594C21.7469 8.29381 21.7589 8.1758 21.8277 8.1537C21.8965 8.13161 21.9985 8.18283 21.9985 8.22401V9.32876C21.9985 9.38148 21.8745 9.43069 21.7956 9.38098C21.7509 9.35336 21.5616 8.80952 21.418 8.65385C20.9047 8.09596 19.7246 8.29481 19.8893 9.12839C19.9174 9.27101 20.171 9.36742 20.3016 9.41864C20.9439 9.67022 22.2255 9.61147 22.3455 10.4882C22.5253 11.8014 21.3667 12.4703 20.2303 11.9505C20.1233 11.9018 19.9014 11.705 19.817 11.711C19.7748 11.714 19.6357 12.1564 19.4374 12.0655V10.5842C19.4374 10.548 19.5283 10.4672 19.6126 10.5595C19.6729 10.6253 19.7854 11.0401 19.8793 11.1968C20.1505 11.6487 20.625 11.9325 21.1659 11.8601C21.5827 11.8044 22.0161 11.4082 21.8755 10.9583C21.6992 10.3943 20.0129 10.4672 19.6166 9.90323C19.2415 9.36893 19.5072 8.76533 19.8391 8.29983V8.29933Z" fill="#282829"/>
<path d="M25.7139 8.39953C25.8335 8.69179 26.0444 8.81231 26.0132 9.17185C25.9404 10.0024 24.801 9.66949 25.1364 8.95191C25.1952 8.82637 25.4202 8.66769 25.3564 8.55671C25.3217 8.49695 24.8894 8.35735 24.7879 8.34731C23.9543 8.26646 23.6153 8.7169 23.5174 9.49273C23.438 10.1209 23.4315 11.4401 24.0954 11.7509C24.7392 12.0522 25.3338 11.768 25.6723 11.1956C25.7395 11.0816 25.8952 10.6331 25.9218 10.6171C25.966 10.59 26.0569 10.6181 26.1152 10.6095C26.1061 11.3854 25.4473 12.0492 24.6835 12.1155C21.807 12.3646 21.9436 7.86724 24.7337 8.10025C25.0947 8.13038 25.377 8.30864 25.7139 8.40054V8.39953Z" fill="#282829"/>
<path d="M28.6267 10.9858C28.5368 11.6989 27.3788 11.9836 27.0961 11.2615C26.8826 10.7171 27.2894 10.2481 27.8107 10.1196C27.9347 10.0889 28.6267 9.99152 28.6267 10.1321C28.6267 10.3922 28.6573 10.7412 28.6267 10.9858Z" fill="#F2F2F2"/>
<path d="M41.8845 16.0324L41.9372 16.3061C41.7801 22.1864 42.1376 28.1681 41.9372 34.0369C41.758 39.2814 39.118 43.0014 33.7707 43.8481C25.5832 44.0876 17.367 43.8862 9.16834 43.952C3.82663 43.6582 0.255611 40.0166 0 34.6902L0.00251091 16.0324H41.8845ZM21.4959 27.0297C21.643 27.0573 21.6034 26.9564 21.5913 26.8605C21.409 25.4359 21.0585 23.9887 20.7964 22.5821C20.7035 22.0845 20.6854 21.2197 20.3911 20.8281C19.8719 20.1366 18.9343 20.233 18.514 20.9591L15.1177 31.2474C14.5276 31.0806 14.1831 30.0874 13.5117 30.0427C13.4464 30.0382 13.3761 30.0402 13.3108 30.0427C13.1687 29.9588 12.9036 29.9578 12.7584 30.0427C12.658 30.0402 12.5576 30.0442 12.4571 30.0427C10.5925 30.0703 8.71939 29.9679 6.86182 30.1381L6.86734 31.9906C6.92208 32.1076 7.30022 32.0403 7.45992 32.0518C9.20048 32.1774 10.9817 32.1246 12.7323 32.1528C12.7755 32.1608 13.1893 32.4917 13.2606 32.5535C13.8025 33.0195 14.272 33.6236 14.8174 34.1102C14.9454 34.2247 15.0047 34.3823 15.2176 34.4381C16.6182 34.8037 16.789 33.1159 17.1119 32.1628C17.1435 32.0689 17.1606 32.0162 17.1987 31.9022C17.8219 30.0437 18.406 28.1671 19.0513 26.3172C19.0789 26.2383 19.1131 26.0555 19.1859 26.0254C19.45 27.2934 19.6233 28.5799 19.8508 29.8549C20.4539 33.2329 21.0962 36.6205 21.6993 40.008C22.0167 40.8969 23.2169 41.0159 23.6985 40.2039C23.8195 40 23.8316 39.7082 23.9425 39.4938L27.0711 28.4358L27.3092 28.9249C27.6928 29.7243 27.9198 30.8492 28.3487 31.6014C28.4391 31.7606 28.6691 32.0056 28.8418 32.0624C28.9965 32.1131 29.4726 32.1382 29.6569 32.1412C30.7602 32.1573 31.9162 32.098 33.0195 32.0488C33.2635 32.0378 34.1163 32.1648 34.1529 31.8721L34.1017 30.1421L30.0295 29.9202L27.8932 24.4235C27.4166 23.6612 26.3676 23.6909 25.9347 24.4858C25.6781 25.5755 25.1854 26.7365 24.9695 27.8226C24.9554 27.8924 25.0132 27.9271 25.0117 27.9326C24.9821 28.0687 24.9384 28.2038 24.9113 28.3343L22.9532 34.7118C22.5877 32.2883 22.0674 29.8895 21.6983 27.4636C21.6877 27.4013 21.6164 27.441 21.5968 27.4305C21.5225 27.3913 21.5195 27.1231 21.4964 27.0287L21.4959 27.0297Z" fill="#2295D3"/>
<path d="M21.4688 26.1925L21.3213 26.2179L21.7233 28.5548L21.8708 28.5294L21.4688 26.1925Z" fill="#89C4E3"/>
<path d="M15.4651 8.9541C15.5483 8.9541 15.6158 8.87227 15.6158 8.77132C15.6158 8.67037 15.5483 8.58853 15.4651 8.58853C15.3819 8.58853 15.3145 8.67037 15.3145 8.77132C15.3145 8.87227 15.3819 8.9541 15.4651 8.9541Z" fill="#1E5276"/>
<path d="M27.1904 9.33222C27.3463 9.33222 27.4727 9.19598 27.4727 9.02791C27.4727 8.85985 27.3463 8.7236 27.1904 8.7236C27.0346 8.7236 26.9082 8.85985 26.9082 9.02791C26.9082 9.19598 27.0346 9.33222 27.1904 9.33222Z" fill="#282829"/>
<path d="M11.3141 11.6604C11.3294 11.6515 11.3174 11.6018 11.2872 11.5495C11.2569 11.4971 11.22 11.4619 11.2046 11.4707C11.1892 11.4796 11.2013 11.5293 11.2315 11.5816C11.2617 11.634 11.2987 11.6692 11.3141 11.6604Z" fill="#F2F2F2"/>
<rect x="17.4707" y="8.11197" width="0.541252" height="0.147875" transform="rotate(43.3608 17.4707 8.11197)" fill="#F2F2F2"/>
<rect x="15.0645" y="8.87665" width="0.745238" height="0.106463" transform="rotate(-50.1834 15.0645 8.87665)" fill="#F2F2F2"/>
<rect x="19.4863" y="8.50589" width="0.532313" height="0.0652524" transform="rotate(-36.1777 19.4863 8.50589)" fill="#F2F2F2"/>
</svg>
