<svg width="48" height="48" viewBox="0 0 48 48" fill="none" xmlns="http://www.w3.org/2000/svg">
<path d="M29.25 16.5H18.75C18.1533 16.5 17.581 16.7371 17.159 17.159C16.7371 17.581 16.5 18.1533 16.5 18.75V29.25C16.5 29.8467 16.7371 30.419 17.159 30.841C17.581 31.2629 18.1533 31.5 18.75 31.5H29.25C29.8467 31.5 30.419 31.2629 30.841 30.841C31.2629 30.419 31.5 29.8467 31.5 29.25V18.75C31.5 18.1533 31.2629 17.581 30.841 17.159C30.419 16.7371 29.8467 16.5 29.25 16.5ZM27 27H21V21H27V27ZM43.5 26.25H41.25V21.75H43.5C44.0967 21.75 44.669 21.5129 45.091 21.091C45.5129 20.669 45.75 20.0967 45.75 19.5C45.75 18.9033 45.5129 18.331 45.091 17.909C44.669 17.4871 44.0967 17.25 43.5 17.25H41.25V10.5C41.25 9.50544 40.8549 8.55161 40.1516 7.84835C39.4484 7.14509 38.4946 6.75 37.5 6.75H30.75V4.5C30.75 3.90326 30.5129 3.33097 30.091 2.90901C29.669 2.48705 29.0967 2.25 28.5 2.25C27.9033 2.25 27.331 2.48705 26.909 2.90901C26.4871 3.33097 26.25 3.90326 26.25 4.5V6.75H21.75V4.5C21.75 3.90326 21.5129 3.33097 21.091 2.90901C20.669 2.48705 20.0967 2.25 19.5 2.25C18.9033 2.25 18.331 2.48705 17.909 2.90901C17.4871 3.33097 17.25 3.90326 17.25 4.5V6.75H10.5C9.50544 6.75 8.55161 7.14509 7.84835 7.84835C7.14509 8.55161 6.75 9.50544 6.75 10.5V17.25H4.5C3.90326 17.25 3.33097 17.4871 2.90901 17.909C2.48705 18.331 2.25 18.9033 2.25 19.5C2.25 20.0967 2.48705 20.669 2.90901 21.091C3.33097 21.5129 3.90326 21.75 4.5 21.75H6.75V26.25H4.5C3.90326 26.25 3.33097 26.4871 2.90901 26.909C2.48705 27.331 2.25 27.9033 2.25 28.5C2.25 29.0967 2.48705 29.669 2.90901 30.091C3.33097 30.5129 3.90326 30.75 4.5 30.75H6.75V37.5C6.75 38.4946 7.14509 39.4484 7.84835 40.1516C8.55161 40.8549 9.50544 41.25 10.5 41.25H17.25V43.5C17.25 44.0967 17.4871 44.669 17.909 45.091C18.331 45.5129 18.9033 45.75 19.5 45.75C20.0967 45.75 20.669 45.5129 21.091 45.091C21.5129 44.669 21.75 44.0967 21.75 43.5V41.25H26.25V43.5C26.25 44.0967 26.4871 44.669 26.909 45.091C27.331 45.5129 27.9033 45.75 28.5 45.75C29.0967 45.75 29.669 45.5129 30.091 45.091C30.5129 44.669 30.75 44.0967 30.75 43.5V41.25H37.5C38.4946 41.25 39.4484 40.8549 40.1516 40.1516C40.8549 39.4484 41.25 38.4946 41.25 37.5V30.75H43.5C44.0967 30.75 44.669 30.5129 45.091 30.091C45.5129 29.669 45.75 29.0967 45.75 28.5C45.75 27.9033 45.5129 27.331 45.091 26.909C44.669 26.4871 44.0967 26.25 43.5 26.25ZM36.75 36.75H11.25V11.25H36.75V36.75Z" fill="url(#paint0_linear_464_734)"/>
<defs>
<linearGradient id="paint0_linear_464_734" x1="45.75" y1="-4.51667" x2="2.06403" y2="-4.35452" gradientUnits="userSpaceOnUse">
<stop stop-color="#00B277"/>
<stop offset="1" stop-color="#0092E7"/>
</linearGradient>
</defs>
</svg>
