<svg width="24" height="24" viewBox="0 0 24 24" fill="none" xmlns="http://www.w3.org/2000/svg">
<path d="M19.7501 0C22.1001 0 24 1.9488 24 4.35904V19.641C24 22.0512 22.1001 24 19.7501 24H4.24992C1.89998 23.9999 3.60313e-05 22.0511 0 19.641V4.35904C0 1.94884 1.89995 6.44321e-05 4.24992 0H19.7501ZM17.2101 8.64578C16.5001 8.64579 15.9099 8.75917 15.4399 9.00532C15.0101 9.21045 14.6398 9.53811 14.3899 9.94825C14.1699 10.3277 14.0504 10.7483 14.0504 11.1893C14.0404 11.5481 14.12 11.9071 14.2799 12.2352C14.4699 12.584 14.7302 12.8822 15.0402 13.1078C15.4801 13.4154 15.9504 13.6612 16.4603 13.8457C16.9502 14.0406 17.2806 14.1948 17.4405 14.3281C17.6003 14.4613 17.6796 14.5947 17.6796 14.7381C17.6796 14.9228 17.5699 15.0972 17.4099 15.169C17.2299 15.2613 16.9598 15.3126 16.5799 15.3126C16.1799 15.3126 15.7797 15.2616 15.3997 15.1591C14.9599 15.0565 14.5502 14.8917 14.1603 14.6559C14.1304 14.6355 14.1004 14.6257 14.0704 14.646C14.0405 14.6665 14.0303 14.7074 14.0303 14.7381V16.523C14.0204 16.6049 14.0703 16.6771 14.1403 16.7181C14.4601 16.8718 14.8099 16.9844 15.1597 17.0459C15.6096 17.1382 16.0598 17.1796 16.5196 17.1796C17.2396 17.1796 17.8399 17.0662 18.3299 16.8508C18.7798 16.6663 19.1698 16.3486 19.4498 15.9386C19.7098 15.5386 19.85 15.0558 19.84 14.5737C19.8499 14.2047 19.7703 13.8459 19.6105 13.5179C19.4205 13.1692 19.1504 12.8815 18.8205 12.6661C18.3405 12.3584 17.8199 12.1019 17.2799 11.9173C17.0401 11.8148 16.8001 11.7025 16.5703 11.5795C16.4403 11.5078 16.3198 11.415 16.2298 11.3022C16.1699 11.2203 16.1304 11.128 16.1304 11.0358C16.1304 10.9435 16.1598 10.8405 16.2098 10.7585C16.2797 10.656 16.3898 10.5842 16.5196 10.5534C16.7096 10.5021 16.9202 10.4719 17.1202 10.4821C17.5001 10.4821 17.8701 10.5328 18.24 10.6148C18.58 10.6866 18.9002 10.7994 19.2002 10.9635C19.2402 10.984 19.29 10.984 19.38 10.9635C19.4099 10.943 19.4296 10.9024 19.4297 10.8615V9.18955C19.4297 9.14859 19.4196 9.1077 19.4096 9.06673C19.3896 9.02571 19.3502 8.98389 19.3102 8.97363C19.0403 8.86087 18.7503 8.77893 18.4504 8.7379C18.0404 8.67636 17.6201 8.64578 17.2101 8.64578ZM8.60026 6.10227C8.30025 6.10227 7.99983 6.1029 7.68983 6.11316C7.3799 6.12341 7.08952 6.12272 6.81957 6.13297C6.54983 6.14321 6.30005 6.14353 6.06025 6.15377C5.83025 6.16403 5.66984 6.16367 5.49984 6.16367C5.43 6.16373 5.40043 6.20496 5.40038 6.27659V16.831C5.40051 16.923 5.4401 16.9637 5.51992 16.9637H7.46031C7.53014 16.9533 7.58027 16.8918 7.57029 16.8201V13.5278C7.75997 13.5278 7.89975 13.5285 7.99968 13.5387C8.09966 13.5489 8.25993 13.5486 8.49984 13.5486C9.31985 13.5486 10.0701 13.4564 10.7501 13.2C11.3999 12.9539 11.9596 12.5231 12.3596 11.949C12.7596 11.3747 12.9601 10.646 12.9602 9.76402C12.9602 9.30252 12.8797 8.86159 12.7297 8.43085C12.5697 7.98983 12.32 7.58931 12 7.26111C11.62 6.88173 11.1601 6.59454 10.6602 6.42021C10.1002 6.20484 9.42015 6.10229 8.60026 6.10227ZM8.67007 8.12282C9.08005 8.11257 9.48019 8.17401 9.85018 8.32784C10.1401 8.44064 10.3802 8.64568 10.5502 8.91222C10.7102 9.18913 10.7897 9.50749 10.7797 9.82543C10.7797 10.2767 10.6799 10.6259 10.4699 10.8823C10.25 11.1384 9.97003 11.3327 9.6503 11.425C9.2803 11.5481 8.88984 11.6103 8.49984 11.6103H7.97004C7.85003 11.6103 7.71985 11.5997 7.57985 11.5895V8.14362C7.64985 8.13336 7.79012 8.12247 7.99012 8.13272C8.18009 8.12247 8.41013 8.12282 8.67007 8.12282Z" fill="url(#paint0_linear_464_772)"/>
<defs>
<linearGradient id="paint0_linear_464_772" x1="36.7313" y1="-2.87757" x2="7.22338" y2="-9.28187" gradientUnits="userSpaceOnUse">
<stop stop-color="#00B277"/>
<stop offset="1" stop-color="#0092E7"/>
</linearGradient>
</defs>
</svg>
