<svg width="40" height="45" viewBox="0 0 40 45" fill="none" xmlns="http://www.w3.org/2000/svg">
<g clip-path="url(#clip0_631_734)">
<path d="M11.7266 13.0408C11.7895 12.7097 12.3756 11.6963 12.5776 11.3652C15.8196 6.11309 21.4592 5.04347 27.1649 6.56346C31.7978 7.79866 36.1458 10.5042 39.9739 13.2958C40.0037 15.1933 40.0037 17.1008 39.9971 19.0016C39.9971 19.1042 39.9541 19.2003 39.9541 19.3129C39.921 27.5718 39.9971 35.8308 39.9375 44.0897L39.8382 44.1096C38.2321 42.7188 36.5697 41.3842 34.8377 40.149C30.2811 36.8971 23.2937 32.8769 17.5151 34.5757C15.1109 35.2811 13.071 37.0561 11.9782 39.3013C11.9418 39.3741 11.8623 39.6523 11.8458 39.6655C11.8358 39.6755 11.7597 39.6622 11.7299 39.6655V13.0408H11.7266ZM13.9983 33.0789H18.8166C18.9358 33.0789 18.9755 32.8736 18.9888 32.7776C19.5583 29.1845 19.9822 25.5617 20.5352 21.9654L20.6313 21.8661L25.0422 32.9332C25.1118 33.059 25.1515 33.069 25.2873 33.0822C25.6648 33.1186 26.5755 33.1253 26.9497 33.0822C27.0225 33.0723 27.0954 33.0657 27.1451 32.9994C28.6949 29.3269 30.1784 25.6246 31.7348 21.9555C31.7481 21.9257 31.7348 21.8329 31.8044 21.8694C31.8839 21.9124 31.9236 22.2999 31.9368 22.4058C32.4104 25.8002 32.7051 29.2309 33.2118 32.6219C33.2283 32.7411 33.2416 33.0822 33.384 33.0822H38.2387C38.2619 33.0822 38.3314 32.9928 38.3347 32.9464C38.3414 32.8637 38.2718 32.5193 38.2552 32.3967C37.4539 26.4724 36.4902 20.5348 35.5696 14.6304C35.5166 14.286 35.4504 13.9382 35.3808 13.5972L30.3341 13.5905L26.198 23.8861L26.0688 23.7768L22.1844 13.5475L17.2535 13.5607L17.2038 13.6303L13.9155 33.0027C13.9155 33.0027 13.985 33.0789 13.995 33.0822L13.9983 33.0789Z" fill="#3D7AAF"/>
<path d="M0.592257 2.12269C0.658488 2.12269 0.724719 2.12269 0.790949 2.12269C0.883672 2.1823 1.036 2.19886 1.14528 2.20217C1.17178 2.20217 1.19827 2.20217 1.22476 2.20217C1.35722 2.25184 1.55922 2.31476 1.69831 2.32139C1.73805 2.32139 1.77779 2.32139 1.81752 2.32139C1.92018 2.39755 2.08576 2.42736 2.2116 2.4406C2.23809 2.4406 2.26458 2.4406 2.29107 2.4406C2.35068 2.50352 2.44672 2.51677 2.5295 2.52008C2.556 2.52008 2.58249 2.52008 2.60898 2.52008C2.69177 2.57969 2.82754 2.62274 2.92358 2.63929C2.96 2.64592 3.00636 2.63267 3.04279 2.63929C3.16863 2.72539 3.40375 2.80487 3.55608 2.83798C3.57926 2.84461 3.60906 2.83467 3.63556 2.83798C3.69185 2.90422 3.78789 2.94727 3.87399 2.9572C3.90048 2.9572 3.93028 2.95389 3.95346 2.9572C4.01969 3.03668 4.1356 3.05655 4.22832 3.07642C4.2515 3.08304 4.2813 3.0731 4.3078 3.07642C4.29786 3.1592 4.30449 3.16583 4.38727 3.15589C4.39721 3.16583 4.47337 3.14927 4.50649 3.15589C4.49655 3.23868 4.50318 3.2453 4.58597 3.23537C4.5959 3.2453 4.67207 3.22875 4.70518 3.23537C4.682 3.33472 4.78135 3.33471 4.86413 3.35458C4.89725 3.36121 4.95023 3.34796 4.98335 3.35458C5.00653 3.55328 5.35424 3.46718 5.34099 3.68905V25.7207C5.3708 25.8829 5.72182 25.9061 5.87746 25.9723C8.6724 27.1049 10.3348 30.0654 11.0103 32.8802C11.2223 33.7578 11.2918 34.4035 11.2984 35.2976C11.3018 35.8904 11.2984 36.4832 11.2984 37.0759C11.2984 37.917 11.2984 38.7615 11.2984 39.6026L11.219 39.4834C11.219 39.4172 11.219 39.3509 11.219 39.2847C11.219 39.1589 11.2057 38.9999 11.1395 38.8906C11.1395 38.8377 11.1395 38.7847 11.1395 38.7317C11.1329 38.6025 11.0931 38.4005 11.0203 38.2979C11.017 38.2581 11.0203 38.2184 11.0203 38.1787C11.0136 38.0561 10.9607 37.8939 10.9011 37.7846C10.9011 37.7581 10.9011 37.7316 10.9011 37.7051C10.8977 37.6389 10.8713 37.5528 10.8216 37.5064C10.8216 37.4799 10.8216 37.4534 10.8216 37.4269C10.8116 37.3309 10.7487 37.2316 10.7024 37.1521C10.6891 37.1256 10.6891 37.0527 10.6626 37.0329L10.6229 36.9534C10.6229 36.9137 10.5964 36.8408 10.5832 36.7944C10.5467 36.652 10.4639 36.46 10.3977 36.3275C10.3646 36.2646 10.3745 36.195 10.2686 36.2017C10.2553 36.1686 10.2686 36.0659 10.2288 36.0427C10.2421 35.9666 10.2255 35.95 10.1493 35.9632C10.146 35.9367 10.156 35.9069 10.1493 35.8838C10.1228 35.7778 10.0798 35.6089 9.95065 35.6089C9.93409 35.5725 9.91091 35.4599 9.87117 35.4102C9.87117 35.3307 9.83474 35.2877 9.75196 35.291C9.69897 35.2049 9.6791 35.0956 9.593 35.0161C9.60625 34.9466 9.58638 34.9234 9.51353 34.9367C9.47048 34.8141 9.36782 34.7181 9.2751 34.6221C9.28834 34.5492 9.26847 34.5293 9.19562 34.5426C9.18237 34.5161 9.16913 34.4896 9.15588 34.4631C9.1029 34.3571 9.06647 34.2446 8.91745 34.2247C8.82142 34.1055 8.74525 34.0492 8.64259 33.9498C8.64922 33.8704 8.60285 33.8339 8.52338 33.8306C8.37436 33.6948 8.26177 33.5789 8.08957 33.4763C8.10281 33.4001 8.08626 33.3836 8.01009 33.3968C7.89419 33.2842 7.79153 33.2378 7.65576 33.1584C7.669 33.0392 7.47031 33.0027 7.3809 32.9597C7.37096 32.9564 7.3511 32.963 7.34116 32.9597C7.34116 32.8405 7.0928 32.7511 6.98683 32.7213C6.96365 32.7146 6.93384 32.7246 6.90735 32.7213C6.91728 32.6385 6.91066 32.6318 6.82787 32.6418C6.82456 32.6352 6.80138 32.6451 6.78813 32.6418C6.79807 32.559 6.79145 32.5524 6.70866 32.5623C6.70203 32.5557 6.65236 32.5656 6.62918 32.5623C6.63912 32.4795 6.63249 32.4729 6.5497 32.4828C6.54308 32.4762 6.44042 32.463 6.39075 32.4431C6.40731 32.3504 6.20862 32.3073 6.13907 32.2775C5.99999 32.2212 5.68208 32.0656 5.55956 32.049C5.52313 32.0424 5.47677 32.0556 5.44034 32.049C5.32775 31.9728 5.05951 31.8636 4.92705 31.8503C4.90056 31.8503 4.87407 31.8536 4.84758 31.8503C4.75154 31.7808 4.60915 31.7377 4.49324 31.7311C4.4535 31.7311 4.41377 31.7311 4.37403 31.7311C4.31442 31.6682 4.21839 31.6549 4.1356 31.6516C4.1091 31.6516 4.08261 31.6516 4.05612 31.6516C3.92035 31.5986 3.72497 31.5423 3.58257 31.5324C3.51634 31.5291 3.45011 31.5324 3.38388 31.5324C3.2746 31.4529 3.11896 31.4529 2.98981 31.4529C2.96331 31.4529 2.93682 31.4529 2.91033 31.4529C2.88384 31.3933 2.80436 31.4132 2.75138 31.4132C2.66197 31.4132 2.56262 31.4231 2.47652 31.4132C2.17517 31.3834 1.89038 31.3437 1.56916 31.3337C1.24794 31.3238 0.936657 31.3337 0.622061 31.3337C0.429992 31.3337 0.168381 31.3933 0.0292969 31.294V2.12269C0.171693 2.00348 0.396877 2.11607 0.582323 2.12269H0.592257Z" fill="#252121"/>
<path d="M4.97401 3.34798C5.07336 3.37116 5.14621 3.45395 5.26543 3.43077C5.37471 3.295 5.28861 3.14929 5.2853 3.01352C5.28199 2.02006 5.27868 1.02329 5.30517 0.029828C5.3714 -0.0662065 5.79859 0.0993702 5.91118 0.139109C9.92144 1.57963 11.5077 6.80191 11.5673 10.6698V35.7844C11.5441 35.854 11.5772 36.0659 11.4481 36.0394C11.4547 35.8209 11.4282 35.6023 11.4083 35.3871C11.3984 35.2678 11.4315 35.2844 11.2891 35.291C11.2825 34.3969 11.2129 33.7512 11.001 32.8736C10.3255 30.0588 8.66306 27.0983 5.86813 25.9658C5.70917 25.9028 5.35815 25.8763 5.32835 25.7141V3.68245C5.34159 3.46058 4.99388 3.54999 4.9707 3.34798H4.97401Z" fill="#A9A9AA"/>
<path d="M11.2919 37.066C11.4111 37.0428 11.3681 37.1256 11.3714 37.2017C11.4012 37.9237 11.4045 38.7747 11.3714 39.4966C11.3648 39.6655 11.3482 40.0099 11.3184 40.1556C11.3052 40.2285 11.3019 40.2848 11.2124 40.2649C11.2323 40.0397 11.1628 39.8344 11.1694 39.6092C11.1694 39.5397 11.2124 39.4834 11.2124 39.4768L11.2919 39.596C11.2919 38.7549 11.2919 37.9104 11.2919 37.0693V37.066Z" fill="#252121"/>
<path d="M5.56684 32.0523C5.68936 32.0689 6.00727 32.2245 6.14635 32.2808C6.2159 32.3106 6.41459 32.3537 6.39803 32.4464C6.15629 32.3537 5.90792 32.2709 5.6728 32.1649C5.6132 32.1384 5.55028 32.145 5.57015 32.0523H5.56684Z" fill="#252121"/>
<path d="M0.0397384 2.12269L0 2.00347C0.162265 1.99354 0.307973 2.00347 0.466926 2.02997C0.536468 2.04321 0.612633 2.01672 0.589453 2.12269C0.404007 2.11607 0.178823 2.00347 0.0364269 2.12269H0.0397384Z" fill="#252121"/>
<path d="M10.5802 36.7911C10.4776 36.811 10.5007 36.7415 10.4743 36.6819C10.4014 36.5229 10.3285 36.3606 10.2656 36.1984C10.3716 36.1918 10.3617 36.2613 10.3948 36.3242C10.461 36.4567 10.5438 36.6487 10.5802 36.7911Z" fill="#252121"/>
<path d="M3.04004 2.63599C3.15925 2.65917 3.30165 2.67241 3.44736 2.7254C3.51028 2.74858 3.5732 2.73864 3.55333 2.83468C3.401 2.80156 3.16588 2.7254 3.04004 2.63599Z" fill="#252121"/>
<path d="M1.22559 2.20218C1.22559 2.20218 1.2587 2.16244 1.31831 2.16575C1.39447 2.16907 1.73887 2.22205 1.70245 2.3214C1.56336 2.31477 1.36136 2.25185 1.2289 2.20218H1.22559Z" fill="#252121"/>
<path d="M11.133 38.725C11.1098 38.725 11.0668 38.735 11.0568 38.725C11.0469 38.7118 10.984 38.4138 10.9807 38.3773C10.9774 38.3177 11.0138 38.2945 11.0138 38.2912C11.0867 38.3939 11.1264 38.5992 11.133 38.725Z" fill="#252121"/>
<path d="M1.81445 2.32135C1.81445 2.32135 1.85088 2.2783 1.90718 2.28161C1.96016 2.28161 2.25489 2.35447 2.20853 2.44057C2.08269 2.42732 1.91711 2.39752 1.81445 2.32135Z" fill="#252121"/>
<path d="M11.213 39.2781C11.1269 39.3311 11.0938 39.0595 11.0938 38.9801C11.0938 38.9238 11.1368 38.8907 11.1368 38.884C11.203 38.9933 11.213 39.1523 11.2163 39.2781H11.213Z" fill="#252121"/>
<path d="M6.98743 32.7213C7.09671 32.7477 7.34177 32.8372 7.34177 32.9597C7.2358 32.91 6.98081 32.8372 6.98743 32.7213Z" fill="#252121"/>
<path d="M11.0144 38.172C10.9217 38.2151 10.8687 37.9303 10.8621 37.8641C10.8554 37.8044 10.8952 37.7846 10.8952 37.778C10.9515 37.8872 11.0045 38.0495 11.0144 38.172Z" fill="#252121"/>
<path d="M0.788086 2.1227C0.788086 2.1227 0.827824 2.07965 0.88412 2.07965C0.960286 2.07965 1.19209 2.10945 1.14573 2.19887C1.03645 2.19555 0.88412 2.18231 0.791397 2.11939L0.788086 2.1227Z" fill="#252121"/>
<path d="M2.60645 2.52007C2.60645 2.52007 2.63294 2.48033 2.69255 2.48695C2.75215 2.49357 2.96078 2.54987 2.92104 2.63928C2.82169 2.62603 2.68592 2.58299 2.60645 2.52007Z" fill="#252121"/>
<path d="M9.15933 34.4598C9.00369 34.4598 8.97719 34.2876 8.9209 34.2214C9.06661 34.2412 9.10303 34.3538 9.15933 34.4598Z" fill="#252121"/>
<path d="M7.38179 32.9597C7.47451 32.9994 7.66989 33.0359 7.65665 33.1584C7.57386 33.112 7.36523 33.0855 7.38179 32.9597Z" fill="#252121"/>
<path d="M10.1469 35.8804C10.0443 35.9003 9.99129 35.695 9.94824 35.6056C10.0774 35.6056 10.1204 35.7745 10.1469 35.8804Z" fill="#252121"/>
<path d="M3.94727 2.9539C3.94727 2.9539 3.96713 2.92078 4.00025 2.92409C4.05655 2.93071 4.26848 3.00026 4.22543 3.07311C4.1294 3.05324 4.0135 3.03337 3.95058 2.9539H3.94727Z" fill="#252121"/>
<path d="M10.8189 37.4203C10.7195 37.4567 10.6367 37.1852 10.6996 37.1454C10.746 37.2282 10.8089 37.3243 10.8189 37.4203Z" fill="#252121"/>
<path d="M2.28809 2.44062C2.31458 2.44062 2.5497 2.35452 2.52652 2.5201C2.44373 2.51679 2.35101 2.50354 2.28809 2.44062Z" fill="#252121"/>
<path d="M3.63281 2.83466C3.63281 2.83466 3.65268 2.80155 3.6858 2.80486C3.74209 2.81148 3.90436 2.8744 3.87124 2.95388C3.78514 2.94394 3.69242 2.90089 3.63281 2.83466Z" fill="#252121"/>
<path d="M10.8985 37.6985C10.723 37.7151 10.8223 37.523 10.819 37.4998C10.8687 37.5462 10.8952 37.6323 10.8985 37.6985Z" fill="#252121"/>
<path d="M4.69864 3.22873C4.77812 3.2486 4.88078 3.24529 4.8576 3.34794C4.77812 3.33139 4.67546 3.32808 4.69864 3.22873Z" fill="#252121"/>
<path d="M8.64656 33.9465C8.61013 33.9134 8.5439 33.8439 8.52734 33.8273C8.60351 33.8273 8.64987 33.867 8.64656 33.9465Z" fill="#252121"/>
<path d="M9.87214 35.4069C9.87214 35.4069 9.83241 35.4202 9.75293 35.2877C9.83241 35.2877 9.87214 35.3274 9.87214 35.4069Z" fill="#252121"/>
<path d="M4.30528 3.07309C4.4543 3.09958 4.35495 3.12607 4.38475 3.15257C4.30197 3.1625 4.29534 3.15919 4.30528 3.07309Z" fill="#252121"/>
<path d="M4.50059 3.14926C4.65292 3.17907 4.55026 3.20225 4.58007 3.22874C4.49728 3.23867 4.49066 3.23536 4.50059 3.14926Z" fill="#252121"/>
<path d="M6.55328 32.4861C6.63607 32.4762 6.64269 32.4828 6.63276 32.5656C6.48374 32.5424 6.57977 32.5126 6.55328 32.4861Z" fill="#252121"/>
<path d="M6.71223 32.5656C6.79502 32.5557 6.80164 32.559 6.79171 32.6451C6.64931 32.5888 6.74866 32.6054 6.71223 32.5656Z" fill="#252121"/>
<path d="M6.83203 32.6451C6.91482 32.6351 6.92144 32.6385 6.91151 32.7246C6.77242 32.7014 6.86846 32.7047 6.83203 32.6451Z" fill="#252121"/>
<path d="M8.01367 33.3935C8.08984 33.3803 8.10639 33.3968 8.09315 33.473C7.97062 33.4001 8.04348 33.4233 8.01367 33.3935Z" fill="#252121"/>
<path d="M9.51367 34.9333C9.58653 34.9201 9.60308 34.94 9.59315 35.0128C9.55672 34.9797 9.56666 35.079 9.51367 34.9333Z" fill="#252121"/>
<path d="M10.1465 35.9599C10.2226 35.9467 10.2392 35.9632 10.226 36.0394C10.173 36.0063 10.1697 36.1023 10.1465 35.9599Z" fill="#252121"/>
<path d="M9.19922 34.5393C9.27207 34.526 9.28863 34.5459 9.2787 34.6188C9.24889 34.5856 9.26545 34.6784 9.19922 34.5393Z" fill="#252121"/>
<path d="M10.6598 37.0263C10.6598 37.0263 10.5903 37.0362 10.5803 37.0263C10.5571 37.0064 10.6201 36.9534 10.6201 36.9468L10.6598 37.0263Z" fill="#252121"/>
<path d="M13.9974 33.0789C13.9974 33.0789 13.9246 33.016 13.918 32.9994L17.2063 13.6269L17.256 13.5574L22.1869 13.5442L26.0713 23.7735L26.2004 23.8828L30.3365 13.5872L35.3833 13.5938C35.4529 13.9349 35.5191 14.2859 35.5721 14.627C36.4894 20.5315 37.4563 26.4691 38.2577 32.3934C38.2743 32.5192 38.3438 32.8603 38.3372 32.9431C38.3372 32.9895 38.2644 33.0789 38.2412 33.0789H33.3865C33.2408 33.0789 33.2308 32.7378 33.2143 32.6186C32.7109 29.2276 32.4162 25.8001 31.9393 22.4025C31.9228 22.2932 31.8863 21.9058 31.8069 21.866C31.734 21.8296 31.7506 21.9223 31.7373 21.9521C30.1776 25.6213 28.6973 29.3236 27.1475 32.9961C27.0979 33.059 27.0283 33.069 26.9522 33.0789C26.5813 33.1219 25.6706 33.1186 25.2898 33.0789C25.154 33.0656 25.1143 33.0557 25.0447 32.9299L20.6338 21.8627L20.5377 21.9621C19.988 25.5584 19.5641 29.1812 18.9912 32.7742C18.9747 32.8669 18.9383 33.0756 18.819 33.0756H14.0008L13.9974 33.0789Z" fill="#FEFEFE"/>
</g>
<defs>
<clipPath id="clip0_631_734">
<rect width="40" height="44.1129" fill="white"/>
</clipPath>
</defs>
</svg>
