<svg width="19" height="22" viewBox="0 0 19 22" fill="none" xmlns="http://www.w3.org/2000/svg">
<path d="M17.7785 6.06215L13.938 2.22247C13.6157 1.90025 13.1786 1.71924 12.7228 1.71924C12.2671 1.71924 11.83 1.90025 11.5077 2.22247L0.90985 12.8194C0.749703 12.9786 0.622729 13.1679 0.536285 13.3765C0.449841 13.5851 0.405645 13.8088 0.406256 14.0346V17.8751C0.406256 18.331 0.587338 18.7681 0.909666 19.0905C1.23199 19.4128 1.66917 19.5939 2.12501 19.5939H5.96555C6.19135 19.5945 6.41503 19.5504 6.62362 19.4639C6.83222 19.3775 7.02157 19.2505 7.18071 19.0903L14.0093 12.2625L14.3668 13.4562L11.365 16.458C11.1713 16.6517 11.0624 16.9145 11.0624 17.1885C11.0624 17.4625 11.1713 17.7252 11.365 17.9189C11.5587 18.1127 11.8215 18.2215 12.0955 18.2215C12.3695 18.2215 12.6322 18.1127 12.8259 17.9189L16.2634 14.4814C16.3951 14.3496 16.4886 14.1847 16.534 14.004C16.5794 13.8233 16.575 13.6337 16.5213 13.4554L15.667 10.6082L17.7802 8.49504C17.9401 8.33529 18.0668 8.14559 18.1532 7.93679C18.2397 7.728 18.2841 7.50421 18.2839 7.27824C18.2837 7.05227 18.239 6.82855 18.1523 6.61987C18.0656 6.4112 17.9386 6.22168 17.7785 6.06215ZM3.58594 13.0626L9.68751 6.96106L13.0391 10.3126L6.93751 16.4142L3.58594 13.0626ZM2.46876 14.8673L5.13282 17.5314H2.46876V14.8673ZM14.5 8.85168L11.1484 5.50012L12.7245 3.92403L16.0761 7.27559L14.5 8.85168Z" fill="url(#paint0_linear_464_850)"/>
<defs>
<linearGradient id="paint0_linear_464_850" x1="18.2839" y1="-1.06126" x2="0.32982" y2="-0.994609" gradientUnits="userSpaceOnUse">
<stop stop-color="#00B277"/>
<stop offset="1" stop-color="#0092E7"/>
</linearGradient>
</defs>
</svg>
