<svg width="56" height="34" viewBox="0 0 56 34" fill="none" xmlns="http://www.w3.org/2000/svg">
<mask id="mask0_549_682" style="mask-type:luminance" maskUnits="userSpaceOnUse" x="0" y="0" width="56" height="34">
<path d="M0 0H56V33.6H0V0Z" fill="white"/>
</mask>
<g mask="url(#mask0_549_682)">
<path fill-rule="evenodd" clip-rule="evenodd" d="M28 0C20.5333 0 15.8667 3.73333 14 11.2C16.8 7.46667 20.0667 6.06667 23.8 7C25.9301 7.532 27.4524 9.07822 29.1376 10.7883C31.8827 13.5748 35.0601 16.8 42 16.8C49.4667 16.8 54.1333 13.0667 56 5.6C53.2 9.33333 49.9333 10.7333 46.2 9.8C44.0699 9.268 42.5476 7.72178 40.8624 6.0117C38.1173 3.22519 34.9399 0 28 0ZM14 16.8C6.53333 16.8 1.86667 20.5333 0 28C2.8 24.2667 6.06667 22.8667 9.8 23.8C11.9301 24.333 13.4524 25.8782 15.1376 27.5883C17.8827 30.3748 21.0601 33.6 28 33.6C35.4667 33.6 40.1333 29.8667 42 22.4C39.2 26.1333 35.9333 27.5333 32.2 26.6C30.0699 26.068 28.5476 24.5218 26.8624 22.8117C24.1173 20.0252 20.9399 16.8 14 16.8Z" fill="url(#paint0_linear_549_682)"/>
</g>
<defs>
<linearGradient id="paint0_linear_549_682" x1="56" y1="-5.22667" x2="-0.238033" y2="-4.87877" gradientUnits="userSpaceOnUse">
<stop stop-color="#00B277"/>
<stop offset="1" stop-color="#0092E7"/>
</linearGradient>
</defs>
</svg>
