<svg width="22" height="22" viewBox="0 0 22 22" fill="none" xmlns="http://www.w3.org/2000/svg">
<path d="M10.9997 3.09371C9.30004 3.09371 7.63852 3.59773 6.22529 4.54202C4.81205 5.48631 3.71057 6.82847 3.06013 8.39878C2.40969 9.96908 2.2395 11.697 2.57109 13.364C2.90269 15.031 3.72116 16.5623 4.92302 17.7642C6.12488 18.966 7.65614 19.7845 9.32316 20.1161C10.9902 20.4477 12.7181 20.2775 14.2884 19.6271C15.8587 18.9766 17.2009 17.8751 18.1452 16.4619C19.0895 15.0487 19.5935 13.3871 19.5935 11.6875C19.591 9.40903 18.6848 7.22463 17.0737 5.61353C15.4626 4.00243 13.2782 3.09621 10.9997 3.09371ZM10.9997 18.2187C9.70796 18.2187 8.44521 17.8357 7.37115 17.118C6.29709 16.4003 5.45997 15.3803 4.96563 14.1869C4.4713 12.9934 4.34195 11.6802 4.59396 10.4133C4.84597 9.14634 5.46802 7.98258 6.38143 7.06917C7.29484 6.15576 8.4586 5.53372 9.72553 5.28171C10.9925 5.0297 12.3057 5.15904 13.4991 5.65337C14.6925 6.14771 15.7126 6.98484 16.4303 8.05889C17.1479 9.13295 17.531 10.3957 17.531 11.6875C17.5292 13.4191 16.8405 15.0793 15.616 16.3037C14.3915 17.5282 12.7314 18.2169 10.9997 18.2187ZM2.79183 6.22957C2.6959 6.3255 2.58202 6.40159 2.45669 6.45351C2.33135 6.50542 2.19702 6.53214 2.06136 6.53214C1.9257 6.53214 1.79137 6.50542 1.66603 6.45351C1.5407 6.40159 1.42682 6.3255 1.33089 6.22957C1.23496 6.13365 1.15887 6.01976 1.10696 5.89443C1.05504 5.7691 1.02832 5.63476 1.02832 5.4991C1.02832 5.36344 1.05504 5.22911 1.10696 5.10378C1.15887 4.97844 1.23496 4.86456 1.33089 4.76863L4.08089 2.01863C4.27462 1.8249 4.53738 1.71606 4.81136 1.71606C5.08534 1.71606 5.3481 1.8249 5.54183 2.01863C5.73556 2.21237 5.8444 2.47512 5.8444 2.7491C5.8444 3.02308 5.73556 3.28584 5.54183 3.47957L2.79183 6.22957ZM20.6668 6.22957C20.571 6.32571 20.4572 6.40199 20.3318 6.45404C20.2065 6.50609 20.0721 6.53289 19.9364 6.53289C19.8006 6.53289 19.6662 6.50609 19.5409 6.45404C19.4155 6.40199 19.3017 6.32571 19.2059 6.22957L16.4559 3.47957C16.36 3.38365 16.2839 3.26976 16.232 3.14443C16.18 3.0191 16.1533 2.88476 16.1533 2.7491C16.1533 2.61344 16.18 2.47911 16.232 2.35378C16.2839 2.22844 16.36 2.11456 16.4559 2.01863C16.5518 1.92271 16.6657 1.84661 16.791 1.7947C16.9164 1.74278 17.0507 1.71606 17.1864 1.71606C17.322 1.71606 17.4564 1.74278 17.5817 1.7947C17.707 1.84661 17.8209 1.92271 17.9168 2.01863L20.6668 4.76863C20.763 4.86444 20.8393 4.97828 20.8913 5.10363C20.9433 5.22898 20.9701 5.36338 20.9701 5.4991C20.9701 5.63483 20.9433 5.76922 20.8913 5.89457C20.8393 6.01992 20.763 6.13377 20.6668 6.22957ZM15.1247 10.6562C15.3982 10.6562 15.6605 10.7649 15.8539 10.9583C16.0473 11.1517 16.156 11.414 16.156 11.6875C16.156 11.961 16.0473 12.2233 15.8539 12.4167C15.6605 12.6101 15.3982 12.7187 15.1247 12.7187H10.9997C10.7262 12.7187 10.4639 12.6101 10.2705 12.4167C10.0771 12.2233 9.96847 11.961 9.96847 11.6875V7.56246C9.96847 7.28896 10.0771 7.02666 10.2705 6.83326C10.4639 6.63986 10.7262 6.53121 10.9997 6.53121C11.2732 6.53121 11.5355 6.63986 11.7289 6.83326C11.9223 7.02666 12.031 7.28896 12.031 7.56246V10.6562H15.1247Z" fill="url(#paint0_linear_464_856)"/>
<defs>
<linearGradient id="paint0_linear_464_856" x1="20.9701" y1="-1.17185" x2="0.943108" y2="-1.092" gradientUnits="userSpaceOnUse">
<stop stop-color="#00B277"/>
<stop offset="1" stop-color="#0092E7"/>
</linearGradient>
</defs>
</svg>
