<svg width="26" height="22" viewBox="0 0 26 22" fill="none" xmlns="http://www.w3.org/2000/svg">
<path d="M23.4348 0H2.3913C1.75709 0 1.14885 0.25194 0.700397 0.700397C0.25194 1.14885 0 1.75709 0 2.3913V19.6087C0 20.2429 0.25194 20.8511 0.700397 21.2996C1.14885 21.7481 1.75709 22 2.3913 22H23.4348C24.069 22 24.6772 21.7481 25.1257 21.2996C25.5741 20.8511 25.8261 20.2429 25.8261 19.6087V2.3913C25.8261 1.75709 25.5741 1.14885 25.1257 0.700397C24.6772 0.25194 24.069 0 23.4348 0ZM2.86957 8.13043H6.21739V10.5217H2.86957V8.13043ZM6.21739 2.86957V5.26087H2.86957V2.86957H6.21739ZM2.86957 13.3913H6.21739V19.1304H2.86957V13.3913ZM22.9565 19.1304H9.08696V2.86957H22.9565V19.1304Z" fill="url(#paint0_linear_564_207)"/>
<defs>
<linearGradient id="paint0_linear_564_207" x1="25.8261" y1="-3.42222" x2="-0.110276" y2="-3.30921" gradientUnits="userSpaceOnUse">
<stop stop-color="#00B277"/>
<stop offset="1" stop-color="#0092E7"/>
</linearGradient>
</defs>
</svg>
