<svg width="43" height="45" viewBox="0 0 43 45" fill="none" xmlns="http://www.w3.org/2000/svg">
<path d="M33.3316 0.0933556V9.59011H28.6143C28.6021 9.56465 28.5817 9.51373 28.5614 9.50948C28.2273 9.44583 24.5325 9.42462 24.3329 9.49675C24.3125 9.50524 24.2921 9.56889 24.2677 9.59011H13.4765L13.2443 9.47978H9.12991C9.14214 6.35239 9.12177 3.22075 9.12991 0.0933556C9.15843 0.0933556 9.21954 0.00424341 9.2725 0H33.1931C33.2461 0.00848682 33.3072 0.0933556 33.3357 0.0933556H33.3316Z" fill="#9CC870"/>
<path d="M9.07274 9.58994C9.0483 15.2973 9.09718 21.0429 9.1257 26.7291C9.13792 29.2836 9.11755 31.8424 9.1257 34.4012L9.28457 34.5879C9.28457 34.5879 9.22754 34.643 9.17865 34.643C6.13969 34.643 3.10073 34.643 0.0617669 34.643C0.0617669 34.5794 -0.0278529 34.4478 0.00881019 34.346V9.83181C-0.0197055 9.74694 0.0617669 9.64086 0.0617669 9.58994H9.07274Z" fill="#9CC870"/>
<path d="M42.3955 9.64557V34.6435C39.3769 34.6435 36.3501 34.6393 33.3315 34.6435V44.0851H9.17871V34.6435C9.22352 34.6435 9.27241 34.5883 9.28463 34.5883C11.6922 34.5883 14.059 34.6393 16.4624 34.6435C16.8983 34.6435 17.3383 34.6435 17.7742 34.6435C18.6622 34.6435 19.5584 34.6435 20.4465 34.6435C24.7442 34.6435 29.046 34.652 33.3356 34.6435V9.70074L42.3995 9.64557H42.3955Z" fill="#0E82C4"/>
<path d="M9.17841 34.6391V44.0807H33.3312V44.1358C33.2823 44.1401 33.1805 44.2207 33.099 44.191H9.35765C3.94781 43.8685 0.407786 40.2531 0.0615234 34.6391C3.10049 34.6391 6.13945 34.6391 9.17841 34.6391Z" fill="#459ED5"/>
<path d="M42.395 9.64536L33.3311 9.70053V0.0934448C33.6284 0.127392 34.0154 0.106174 34.3006 0.148608C39.0709 0.857258 42.2117 4.63389 42.395 9.64536Z" fill="#459ED4"/>
<path d="M9.12545 0.0934448C9.11731 3.22084 9.13767 6.35248 9.12545 9.47987C9.12545 9.52655 9.07249 9.57747 9.07249 9.5902H0.0615234C0.367049 4.54903 3.27973 0.874232 8.15592 0.148608C8.44108 0.106174 8.824 0.127392 9.12545 0.0934448Z" fill="#E83E45"/>
<path d="M42.395 34.6388C42.0609 40.1977 38.5861 43.6857 33.3311 44.1355V34.6388C36.3496 34.6345 39.3764 34.6388 42.395 34.6388Z" fill="#6C6D70"/>
<path d="M24.2678 9.58994V25.5282C24.2678 25.5834 24.2678 25.6385 24.2678 25.6937C24.1374 25.8252 24.1415 26.135 24.1252 26.3344C24.1252 26.3769 24.1619 26.3981 24.1619 26.4023C24.1619 26.4405 24.1619 26.4745 24.1619 26.5127C24.1619 26.5169 24.1171 26.5254 24.1089 26.623C24.1089 26.6569 24.1089 26.6951 24.1089 26.7333C23.9256 27.0346 23.8849 27.4165 23.7504 27.7517C23.6078 28.1167 23.3919 28.4604 23.2168 28.8041C23.2086 28.8211 23.2249 28.8508 23.2168 28.8593C23.2086 28.8678 23.1353 28.8508 23.0864 28.9102C23.0579 28.9484 23.0701 29.012 23.062 29.0205C21.5303 30.8579 18.4832 31.2059 16.373 30.2851C15.9941 30.1196 15.6723 29.865 15.3098 29.674C15.2975 29.6655 15.2731 29.6825 15.2568 29.674C15.1305 29.377 14.8331 29.186 14.6376 28.9272C13.9858 28.0742 13.5744 26.6866 13.4766 25.6088C13.4603 25.4476 13.5703 25.1717 13.4237 24.9808C13.4644 19.8717 13.3911 14.7542 13.4237 9.6451L13.4766 9.58994H24.2678Z" fill="#80BC46"/>
<path d="M33.3315 9.59006V34.6389C29.046 34.6474 24.7401 34.6389 20.4424 34.6389C20.972 34.4946 21.5219 34.4522 22.0556 34.3292C23.518 33.9897 24.8908 33.3617 25.9418 32.2923C25.9867 32.2456 25.9581 32.3008 26.0478 32.182C26.0681 32.1565 26.0763 32.148 26.1007 32.1268C26.117 32.1141 26.1822 32.1268 26.2066 32.0971C26.2555 32.0377 26.2474 31.9741 26.2596 31.9613C26.2963 31.9147 26.3696 31.8595 26.4185 31.7958C26.6833 31.7279 26.7769 31.4606 26.891 31.2484C26.8992 31.2357 26.8829 31.206 26.891 31.1933C27.1069 31.1169 27.2862 30.7604 27.4043 30.5568C28.0968 29.3516 28.6183 27.6712 28.5653 26.2836C28.5653 26.1733 28.5653 26.063 28.5653 25.9569L28.6182 9.58582H33.3356L33.3315 9.59006Z" fill="#80BC47"/>
<path d="M28.6145 9.58995L28.5616 25.961C28.5616 25.961 28.5086 25.8762 28.5045 25.7786C28.419 20.4022 28.5779 15.0173 28.5045 9.64511H24.3657V25.1166C24.3657 25.1845 24.2638 25.4603 24.2598 25.524V9.5857C24.2842 9.56449 24.3046 9.50084 24.3249 9.49235C24.5246 9.42021 28.2194 9.43719 28.5534 9.50508C28.5738 9.50508 28.5942 9.56024 28.6064 9.5857L28.6145 9.58995Z" fill="#ADD188"/>
<path d="M13.4718 9.59004L13.4188 9.6452H9.17407V25.4477C9.23518 26.0163 9.29221 26.6146 9.27999 27.1662C9.05186 27.2087 9.3085 26.8607 9.12111 26.7292C9.0926 21.043 9.04371 15.3017 9.06816 9.59004C9.06816 9.58155 9.12111 9.53063 9.12111 9.47971H13.2355L13.4677 9.59004H13.4718Z" fill="#ADD188"/>
<path d="M9.12598 26.7291C9.31337 26.8606 9.05265 27.2086 9.28485 27.1662C9.28485 27.2001 9.28485 27.2383 9.28485 27.2765C9.2767 27.3614 9.20745 27.442 9.33781 27.5481C9.33781 27.5735 9.33781 27.6542 9.33781 27.6584C9.33781 27.7857 9.30114 27.8494 9.44372 27.8239C9.45187 27.913 9.44372 28.0064 9.44372 28.0955C9.44372 28.1549 9.42743 28.2313 9.49668 28.261C9.49668 28.2949 9.49668 28.3331 9.49668 28.3713C9.49668 28.4604 9.53742 28.5792 9.6026 28.6429C9.6026 28.6768 9.59852 28.7193 9.6026 28.7532C9.63926 28.9739 9.78999 29.3727 9.87961 29.5849C9.91627 29.6655 9.957 29.8141 10.0751 29.7928C10.0833 29.8225 10.0629 29.8904 10.0751 29.9032C10.0629 30.0177 10.067 30.0262 10.1811 30.0135C10.2014 30.0856 10.2136 30.162 10.234 30.2299C10.3155 30.5185 10.3522 30.4421 10.3929 30.5015C10.4581 30.6033 10.4988 30.7221 10.5518 30.8282C10.6455 31.0149 10.5355 30.981 10.7595 31.0998C10.788 31.1889 10.7269 31.3247 10.9184 31.3162C10.9265 31.3332 10.9102 31.3629 10.9184 31.3714C10.9184 31.4817 10.9673 31.5369 11.0773 31.5369C11.1221 31.5878 11.1384 31.6048 11.1832 31.6472C11.2321 31.9442 11.4969 32.1097 11.7087 32.2455C11.7413 32.2667 11.782 32.2795 11.8146 32.3007C11.7739 32.4407 11.9083 32.3983 11.9205 32.411C11.949 32.4407 11.9287 32.5977 12.0794 32.5765C12.1079 32.6062 12.1975 32.6699 12.2383 32.6869C12.2138 32.8311 12.2709 32.7972 12.3971 32.7972C12.4379 32.8354 12.5071 32.8778 12.556 32.9075C12.5234 33.056 12.6619 33.0348 12.7638 33.073C12.8167 33.0942 12.8656 33.1112 12.9226 33.1282C12.9063 33.2342 12.9267 33.2555 13.0286 33.2385C13.0408 33.2512 13.11 33.2852 13.1345 33.2937C13.106 33.4379 13.2811 33.4294 13.3952 33.4591C13.4237 33.4676 13.4685 33.4507 13.5011 33.4591C13.5011 33.6501 13.607 33.5949 13.7089 33.6246C13.7903 33.6459 13.88 33.6543 13.9696 33.6798C13.9574 33.7944 13.9614 33.8029 14.0755 33.7901C14.0918 33.8029 14.1896 33.7816 14.2344 33.7901C14.1977 33.9217 14.4869 33.9981 14.601 34.0065C14.6336 34.0065 14.6702 34.0065 14.7069 34.0065C14.768 34.0787 14.8821 34.1084 14.9676 34.1169C15.0002 34.1169 15.0369 34.1169 15.0735 34.1169C15.155 34.2781 15.2569 34.172 15.2813 34.172C15.3343 34.172 15.3872 34.172 15.4402 34.172C15.3791 34.2909 15.652 34.3333 15.7538 34.3375C15.7905 34.3375 15.8231 34.3375 15.8598 34.3375C16.0064 34.4309 16.2142 34.4394 16.3853 34.4479C16.4219 34.4479 16.4545 34.4479 16.4912 34.4479L17.0167 34.6134C16.8497 34.6303 16.6175 34.5582 16.4912 34.6685C14.0877 34.6685 11.7209 34.6134 9.31337 34.6134L9.15449 34.4266C9.15042 31.8679 9.17079 29.3133 9.15449 26.7546L9.12598 26.7291Z" fill="#80BC47"/>
<path d="M13.4191 9.64537C13.3865 14.7544 13.4598 19.872 13.4191 24.9811C13.411 25.7534 13.4191 26.2923 13.6309 27.0773C13.8305 27.8199 14.5638 29.3645 15.2523 29.6743C15.2686 29.6828 15.293 29.6658 15.3052 29.6743C15.3337 29.8143 15.5904 29.984 15.7004 30.0562C17.7005 31.3377 21.4361 31.1807 23.0126 29.2117C23.0737 29.1354 23.0533 29.0293 23.0615 29.0208C23.0696 29.0123 23.2489 29.0165 23.2204 28.8553C23.2285 28.8468 23.2122 28.8171 23.2204 28.8001C23.3344 28.8086 23.3589 28.7195 23.4118 28.6431C23.7907 28.0915 24.0514 27.3743 24.1125 26.7251C24.1125 26.6912 24.1125 26.653 24.1125 26.6148C24.2306 26.636 24.2632 26.5893 24.1655 26.5044C24.1655 26.4705 24.1655 26.4323 24.1655 26.3941C24.1899 26.3899 24.2632 26.4026 24.2714 26.3941C24.2877 26.3687 24.3243 25.8976 24.3284 25.817C24.3284 25.7449 24.2714 25.6897 24.2714 25.6812C24.2714 25.6261 24.2714 25.5709 24.2714 25.5157C24.2714 25.4478 24.3773 25.172 24.3773 25.1084V9.63688H28.5161C28.5854 15.0133 28.4265 20.3982 28.5161 25.7703C28.5161 25.8679 28.5732 25.9443 28.5732 25.9528C28.5732 26.0631 28.5732 26.1735 28.5732 26.2795C28.398 26.4281 28.4917 26.6954 28.4632 26.8991C28.2147 28.7237 27.7584 29.6488 26.8989 31.1892C26.8907 31.2019 26.907 31.2316 26.8989 31.2443C26.7604 31.3037 26.5649 31.5329 26.4752 31.6517C26.4345 31.7069 26.4345 31.779 26.4264 31.7875C26.3775 31.8469 26.3041 31.9021 26.2675 31.953C26.1616 31.9487 26.1045 32.0082 26.1086 32.1185C26.0842 32.1397 26.076 32.1482 26.0556 32.1736C25.8968 32.1312 25.966 32.267 25.9497 32.284C23.7214 34.3845 20.0592 34.673 17.1995 34.4651C17.1628 34.4651 17.1302 34.4651 17.0936 34.4651C16.8777 34.4481 16.6699 34.4227 16.4662 34.4099C16.4295 34.4099 16.397 34.4099 16.3603 34.4099C16.3562 34.3845 16.3684 34.3081 16.3603 34.2996C16.344 34.2869 15.9855 34.2529 15.9163 34.2487C15.8755 34.2487 15.8429 34.3038 15.8348 34.2996C15.7981 34.2996 15.7655 34.2996 15.7289 34.2996C15.7778 34.1596 15.5293 34.1426 15.4152 34.1341C15.3622 34.1341 15.3093 34.1341 15.2563 34.1341C15.1789 33.9729 15.0608 34.0789 15.0486 34.0789C15.016 34.0789 14.9793 34.0789 14.9427 34.0789C14.9793 33.871 14.743 33.9729 14.6819 33.9686C14.6494 33.9686 14.6127 33.9686 14.576 33.9686C14.6127 33.8158 14.3275 33.7819 14.2094 33.7522C14.1687 33.7437 14.0668 33.7649 14.0505 33.7522C14.0098 33.714 14.1483 33.7013 13.9446 33.6419C13.855 33.6164 13.7654 33.6079 13.6839 33.5867C13.7165 33.4467 13.582 33.4509 13.4761 33.4212C13.4435 33.4127 13.4028 33.4297 13.3702 33.4212C13.4028 33.243 13.2073 33.2939 13.1095 33.2557C13.0851 33.2472 13.0158 33.2133 13.0036 33.2006C12.9588 33.1539 13.0973 33.1539 12.8977 33.0902C12.8447 33.0733 12.7918 33.0563 12.7388 33.0351C12.7795 32.8738 12.6084 32.9205 12.531 32.8696C12.4822 32.8399 12.417 32.7974 12.3722 32.7592C12.2907 32.6871 12.4496 32.7507 12.2133 32.6489C12.1766 32.6319 12.087 32.5683 12.0544 32.5386C12.0137 32.5004 11.9729 32.4452 11.8955 32.3731C11.8711 32.3519 11.9363 32.3561 11.7896 32.2628C11.757 32.2415 11.7163 32.2288 11.6837 32.2076C11.6063 32.0336 11.4149 31.8002 11.2886 31.6644C11.2356 31.6093 11.1704 31.6178 11.1623 31.6093C11.1175 31.5668 11.1012 31.5499 11.0564 31.4989C11.0523 31.4947 11.0441 31.4183 11.0075 31.3632C10.9871 31.3292 10.9097 31.3462 10.9016 31.3377C10.8934 31.3292 10.9097 31.2995 10.9016 31.2825C10.816 31.1001 10.9342 31.1637 10.7427 31.0661C10.702 30.9431 10.706 30.7945 10.5349 30.7945C10.482 30.6885 10.4412 30.5696 10.3761 30.4678C10.3638 30.349 10.3679 30.1623 10.2172 30.1962C10.1968 30.1241 10.1846 30.0519 10.1642 29.9798C10.1113 29.7761 10.1072 29.9119 10.0583 29.8695C10.0461 29.861 10.0665 29.7888 10.0583 29.7591C9.9687 29.4706 9.82205 29.1778 9.71613 28.885C9.68354 28.8001 9.73242 28.6898 9.58577 28.7238C9.5817 28.6898 9.58577 28.6516 9.58577 28.6134C9.5817 28.5625 9.68354 28.2994 9.47986 28.3418C9.47986 28.3079 9.47986 28.2655 9.47986 28.2315C9.48393 28.1806 9.63873 28.0406 9.4269 28.066C9.4269 27.9769 9.43505 27.8836 9.4269 27.7944C9.40653 27.5186 9.37394 27.6799 9.32098 27.6289C9.32098 27.6289 9.32098 27.5441 9.32098 27.5186C9.33728 27.4125 9.48393 27.2173 9.26803 27.247C9.26803 27.2131 9.26803 27.1749 9.26803 27.1367C9.27617 26.5893 9.22321 25.991 9.16211 25.4181V9.61566H13.4069L13.4191 9.64537Z" fill="#FEFEFE"/>
<path d="M23.2159 28.8553C23.2485 29.0123 23.0652 29.008 23.0571 29.0207C23.0489 29.0335 23.0693 29.1353 23.0082 29.2117C21.4357 31.1806 17.6961 31.3377 15.6959 30.0561C15.5859 29.984 15.3293 29.8185 15.3008 29.6742C15.6633 29.8652 15.9892 30.1198 16.364 30.2853C18.4742 31.2061 21.5213 30.8581 23.053 29.0207C23.0611 29.008 23.0489 28.9444 23.0774 28.9104C23.1263 28.851 23.1996 28.868 23.2078 28.8595L23.2159 28.8553Z" fill="#ADD188"/>
<path d="M15.2521 29.6741C14.5636 29.3643 13.8304 27.8197 13.6308 27.0771C13.4189 26.2879 13.4108 25.7532 13.4189 24.9809C13.5656 25.1718 13.4597 25.4477 13.4719 25.6089C13.5697 26.6867 13.9811 28.0786 14.6329 28.9273C14.8284 29.1861 15.1258 29.3771 15.2521 29.6741Z" fill="#ADD188"/>
<path d="M23.2158 28.7999C23.391 28.4519 23.6069 28.1082 23.7495 27.7475C23.8798 27.4123 23.9246 27.0261 24.108 26.7291C24.0469 27.3783 23.7861 28.0955 23.4073 28.6471C23.3543 28.7235 23.334 28.8084 23.2158 28.8041V28.7999Z" fill="#ADD188"/>
<path d="M24.2679 25.6898C24.2679 25.6898 24.329 25.7535 24.3249 25.8256C24.3249 25.902 24.2842 26.3772 24.2679 26.4027C24.2597 26.4112 24.1864 26.3942 24.1619 26.4027C24.1619 26.4027 24.1212 26.3773 24.1253 26.3348C24.1416 26.1354 24.1334 25.8256 24.2679 25.6941V25.6898Z" fill="#ADD188"/>
<path d="M24.1616 26.5085C24.2598 26.5939 24.2271 26.6409 24.1084 26.6196C24.1166 26.5213 24.1616 26.5171 24.1616 26.5085Z" fill="#ADD188"/>
<path d="M26.0475 32.1861C25.9579 32.3007 25.9905 32.2497 25.9416 32.2964C24.8906 33.3658 23.5177 33.9938 22.0553 34.3333C21.5216 34.4563 20.9717 34.4987 20.4421 34.643C19.5541 34.643 18.6578 34.643 17.7698 34.643C17.6272 34.4818 17.1587 34.7279 17.1954 34.4775C20.051 34.6855 23.7174 34.3927 25.9457 32.2964C25.9619 32.2794 25.8927 32.1479 26.0516 32.1861H26.0475Z" fill="#ADD188"/>
<path d="M26.8867 31.2018C27.7463 29.6615 28.2066 28.7364 28.451 26.9117C28.4795 26.7038 28.3899 26.4407 28.561 26.2922C28.6099 27.6798 28.0885 29.3602 27.4 30.5653C27.2819 30.769 27.1026 31.1297 26.8867 31.2018Z" fill="#ADD188"/>
<path d="M26.8866 31.2572C26.7725 31.4651 26.6789 31.7367 26.4141 31.8046C26.4222 31.7919 26.4222 31.7197 26.4629 31.6688C26.5526 31.55 26.7481 31.3166 26.8866 31.2614V31.2572Z" fill="#ADD188"/>
<path d="M26.2555 31.9659C26.2555 31.9659 26.2555 32.0427 26.2023 32.1025C26.1778 32.1324 26.1123 32.1196 26.0959 32.1324C26.0918 32.0257 26.1491 31.9616 26.2555 31.9659Z" fill="#ADD188"/>
<path d="M17.1914 34.4778C17.1548 34.7243 17.6273 34.4778 17.7658 34.6436C17.3299 34.6436 16.89 34.6436 16.4541 34.6436C16.5804 34.5331 16.8126 34.6053 16.9796 34.5883C17.0814 34.5798 17.0977 34.6266 17.0855 34.4778C17.1222 34.4778 17.1548 34.4778 17.1914 34.4778Z" fill="#9CC870"/>
<path d="M9.59375 28.7449C9.7404 28.7109 9.69152 28.8212 9.72411 28.9061C9.83003 29.1989 9.97668 29.4917 10.0663 29.7802C9.94816 29.8057 9.90742 29.6572 9.87076 29.5723C9.78114 29.3601 9.62634 28.9613 9.59375 28.7406V28.7449Z" fill="#ADD188"/>
<path d="M11.6915 32.2415C11.4797 32.1015 11.2149 31.936 11.166 31.6432C11.1742 31.6517 11.2434 31.6432 11.2923 31.6984C11.4186 31.8341 11.61 32.0718 11.6874 32.2415H11.6915Z" fill="#ADD188"/>
<path d="M17.0894 34.4779C17.1057 34.6266 17.0894 34.5756 16.9835 34.5884L16.458 34.4226C16.6617 34.4354 16.8735 34.4609 17.0854 34.4779H17.0894Z" fill="#ADD188"/>
<path d="M15.8301 34.3123C15.8301 34.3123 15.8708 34.2571 15.9116 34.2613C15.9808 34.2656 16.3352 34.2996 16.3556 34.3123C16.3637 34.3208 16.3515 34.3974 16.3556 34.4229C16.1886 34.4186 15.9767 34.4101 15.8301 34.3123Z" fill="#ADD188"/>
<path d="M14.2053 33.7689C14.3235 33.7986 14.6086 33.8326 14.572 33.9857C14.4579 33.9729 14.1687 33.8964 14.2053 33.7689Z" fill="#ADD188"/>
<path d="M10.7468 31.0915C10.9342 31.1933 10.8161 31.1297 10.9057 31.3079C10.7142 31.3164 10.7794 31.1806 10.7468 31.0915C10.5187 30.9684 10.6287 31.0066 10.5391 30.8199C10.7102 30.8199 10.7061 30.9684 10.7468 31.0915Z" fill="#ADD188"/>
<path d="M9.28052 27.2724C9.49642 27.2427 9.34977 27.4382 9.33347 27.5444C9.20312 27.4382 9.27237 27.3574 9.28052 27.2724Z" fill="#ADD188"/>
<path d="M15.4112 34.1512C15.5293 34.1597 15.7737 34.1724 15.7249 34.3169C15.623 34.3169 15.346 34.2744 15.4112 34.1512Z" fill="#ADD188"/>
<path d="M13.1056 33.2769C13.2034 33.3109 13.403 33.2641 13.3663 33.4426C13.2523 33.4129 13.0771 33.4214 13.1056 33.2769Z" fill="#ADD188"/>
<path d="M10.2256 30.2215C10.3763 30.1875 10.3682 30.3787 10.3845 30.4935C10.3437 30.4297 10.3071 30.5062 10.2256 30.2215Z" fill="#ADD188"/>
<path d="M9.49219 28.3631C9.6918 28.3206 9.58996 28.5884 9.5981 28.6351C9.53293 28.5714 9.49626 28.4481 9.49219 28.3631Z" fill="#ADD188"/>
<path d="M13.4718 33.4423C13.5777 33.4678 13.7121 33.4678 13.6795 33.608C13.5777 33.5825 13.4677 33.6335 13.4718 33.4423Z" fill="#ADD188"/>
<path d="M14.6777 33.9855C14.7388 33.9897 14.9751 33.8877 14.9384 34.096C14.8488 34.0875 14.7388 34.0577 14.6777 33.9855Z" fill="#ADD188"/>
<path d="M12.5312 32.8951C12.6127 32.9418 12.7838 32.895 12.739 33.0608C12.6371 33.0226 12.4986 33.0481 12.5312 32.8951Z" fill="#ADD188"/>
<path d="M15.2527 34.151C15.2282 34.151 15.1264 34.2573 15.0449 34.0958C15.0571 34.0958 15.1794 33.9895 15.2527 34.151Z" fill="#ADD188"/>
<path d="M11.0651 31.5298C10.9587 31.5298 10.9014 31.4743 10.9055 31.3633C10.9178 31.3718 10.9914 31.359 11.0119 31.3889C11.0487 31.4487 11.0569 31.5213 11.061 31.5255L11.0651 31.5298Z" fill="#ADD188"/>
<path d="M11.7975 32.2923C11.9441 32.3858 11.879 32.3773 11.9034 32.4028C11.9808 32.4751 12.0215 32.5261 12.0623 32.5686C11.9116 32.5898 11.9319 32.4368 11.9034 32.4028C11.8912 32.3901 11.7608 32.4326 11.7975 32.2923Z" fill="#ADD188"/>
<path d="M9.43945 28.0912C9.6523 28.0656 9.49676 28.2023 9.49266 28.2578C9.42308 28.2322 9.44355 28.151 9.43945 28.0912Z" fill="#ADD188"/>
<path d="M9.33342 27.6546C9.3823 27.7014 9.41896 27.5398 9.43933 27.8204C9.30083 27.8459 9.33342 27.7864 9.33342 27.6546Z" fill="#ADD188"/>
<path d="M12.2182 32.6741C12.4515 32.7766 12.2919 32.7126 12.3779 32.7852C12.2551 32.7852 12.1937 32.8236 12.2182 32.6741Z" fill="#ADD188"/>
<path d="M12.8976 33.1115C13.0982 33.1755 12.959 33.1755 13.004 33.2225C12.9017 33.2396 12.8812 33.2182 12.8976 33.1115Z" fill="#ADD188"/>
<path d="M13.9447 33.6587C14.1453 33.7185 14.0061 33.727 14.0511 33.7697C13.9406 33.7825 13.9324 33.7783 13.9447 33.6587Z" fill="#ADD188"/>
<path d="M10.0668 29.8947C10.1118 29.9374 10.1159 29.7965 10.1732 30.0057C10.0627 30.0185 10.0545 30.0143 10.0668 29.8947Z" fill="#ADD188"/>
</svg>
