<svg width="22" height="22" viewBox="0 0 22 22" fill="none" xmlns="http://www.w3.org/2000/svg">
<path d="M16.0865 14.0156C14.9693 15.9514 13.1016 17.0625 10.9688 17.0625C8.83594 17.0625 6.97125 15.9524 5.85102 14.0156C5.69637 13.7362 5.6576 13.4072 5.74304 13.0995C5.82849 12.7917 6.03132 12.5298 6.30789 12.3701C6.58447 12.2104 6.91269 12.1656 7.22194 12.2454C7.53119 12.3252 7.79675 12.5233 7.96149 12.7969C8.35657 13.4804 9.27266 14.625 10.9688 14.625C12.6648 14.625 13.5809 13.4794 13.976 12.7969C14.0544 12.6552 14.1603 12.5306 14.2874 12.4303C14.4145 12.33 14.5603 12.256 14.7163 12.2127C14.8723 12.1694 15.0354 12.1576 15.1961 12.178C15.3567 12.1984 15.5116 12.2506 15.6518 12.3316C15.7921 12.4126 15.9147 12.5207 16.0127 12.6496C16.1107 12.7785 16.182 12.9256 16.2224 13.0824C16.2629 13.2392 16.2717 13.4025 16.2484 13.5627C16.225 13.7229 16.17 13.8769 16.0865 14.0156ZM21.9375 10.9687C21.9375 13.1382 21.2942 15.2589 20.0889 17.0627C18.8837 18.8665 17.1706 20.2724 15.1663 21.1026C13.162 21.9328 10.9566 22.15 8.82886 21.7267C6.70113 21.3035 4.74668 20.2588 3.21268 18.7248C1.67867 17.1908 0.633998 15.2364 0.210766 13.1086C-0.212465 10.9809 0.00475261 8.77547 0.834951 6.77119C1.66515 4.76691 3.07104 3.05383 4.87484 1.84857C6.67865 0.643306 8.79934 0 10.9688 0C13.8769 0.00322585 16.6649 1.15989 18.7213 3.21624C20.7776 5.27258 21.9343 8.06065 21.9375 10.9687ZM19.5 10.9687C19.5 9.28143 18.9997 7.632 18.0622 6.22904C17.1248 4.82608 15.7924 3.73261 14.2335 3.0869C12.6746 2.44119 10.9593 2.27225 9.30439 2.60143C7.64949 2.93061 6.12937 3.74313 4.93625 4.93624C3.74313 6.12936 2.93061 7.64948 2.60143 9.30438C2.27225 10.9593 2.4412 12.6746 3.08691 14.2335C3.73262 15.7924 4.82609 17.1248 6.22905 18.0622C7.632 18.9996 9.28143 19.5 10.9688 19.5C13.2306 19.4976 15.3992 18.598 16.9986 16.9986C18.598 15.3992 19.4976 13.2306 19.5 10.9687ZM7.3125 10.5625C7.6339 10.5625 7.94808 10.4672 8.21531 10.2886C8.48254 10.1101 8.69082 9.85629 8.81381 9.55936C8.9368 9.26243 8.96898 8.9357 8.90628 8.62048C8.84358 8.30526 8.68881 8.01571 8.46155 7.78845C8.23429 7.56119 7.94474 7.40642 7.62953 7.34372C7.31431 7.28102 6.98757 7.3132 6.69064 7.4362C6.39371 7.55919 6.13992 7.76747 5.96137 8.0347C5.78281 8.30193 5.6875 8.6161 5.6875 8.9375C5.6875 9.36848 5.85871 9.7818 6.16346 10.0865C6.4682 10.3913 6.88153 10.5625 7.3125 10.5625ZM14.625 7.3125C14.3036 7.3125 13.9894 7.4078 13.7222 7.58636C13.455 7.76492 13.2467 8.01871 13.1237 8.31564C13.0007 8.61257 12.9685 8.9393 13.0312 9.25452C13.0939 9.56974 13.2487 9.85929 13.476 10.0865C13.7032 10.3138 13.9928 10.4686 14.308 10.5313C14.6232 10.594 14.9499 10.5618 15.2469 10.4388C15.5438 10.3158 15.7976 10.1075 15.9761 9.8403C16.1547 9.57307 16.25 9.25889 16.25 8.9375C16.25 8.50652 16.0788 8.0932 15.7741 7.78845C15.4693 7.4837 15.056 7.3125 14.625 7.3125Z" fill="url(#paint0_linear_570_672)"/>
<defs>
<linearGradient id="paint0_linear_570_672" x1="21.9375" y1="-3.4125" x2="-0.0937868" y2="-3.33073" gradientUnits="userSpaceOnUse">
<stop stop-color="#00B277"/>
<stop offset="1" stop-color="#0092E7"/>
</linearGradient>
</defs>
</svg>
