<svg width="55" height="55" viewBox="0 0 55 55" fill="none" xmlns="http://www.w3.org/2000/svg">
<path d="M48.9844 8.59375V16.3281C48.9844 17.0119 48.7127 17.6676 48.2293 18.1511C47.7458 18.6346 47.09 18.9062 46.4062 18.9062C45.7225 18.9062 45.0667 18.6346 44.5832 18.1511C44.0998 17.6676 43.8281 17.0119 43.8281 16.3281V11.1719H38.6719C37.9881 11.1719 37.3324 10.9003 36.8489 10.4168C36.3654 9.93327 36.0938 9.27751 36.0938 8.59375C36.0938 7.90999 36.3654 7.25423 36.8489 6.77074C37.3324 6.28725 37.9881 6.01563 38.6719 6.01562H46.4062C47.09 6.01562 47.7458 6.28725 48.2293 6.77074C48.7127 7.25423 48.9844 7.90999 48.9844 8.59375ZM46.4062 36.0938C45.7225 36.0938 45.0667 36.3654 44.5832 36.8489C44.0998 37.3324 43.8281 37.9881 43.8281 38.6719V43.8281H38.6719C37.9881 43.8281 37.3324 44.0998 36.8489 44.5832C36.3654 45.0667 36.0938 45.7225 36.0938 46.4062C36.0938 47.09 36.3654 47.7458 36.8489 48.2293C37.3324 48.7127 37.9881 48.9844 38.6719 48.9844H46.4062C47.09 48.9844 47.7458 48.7127 48.2293 48.2293C48.7127 47.7458 48.9844 47.09 48.9844 46.4062V38.6719C48.9844 37.9881 48.7127 37.3324 48.2293 36.8489C47.7458 36.3654 47.09 36.0938 46.4062 36.0938ZM16.3281 43.8281H11.1719V38.6719C11.1719 37.9881 10.9003 37.3324 10.4168 36.8489C9.93327 36.3654 9.27751 36.0938 8.59375 36.0938C7.90999 36.0938 7.25423 36.3654 6.77074 36.8489C6.28725 37.3324 6.01562 37.9881 6.01562 38.6719V46.4062C6.01562 47.09 6.28725 47.7458 6.77074 48.2293C7.25423 48.7127 7.90999 48.9844 8.59375 48.9844H16.3281C17.0119 48.9844 17.6676 48.7127 18.1511 48.2293C18.6346 47.7458 18.9062 47.09 18.9062 46.4062C18.9062 45.7225 18.6346 45.0667 18.1511 44.5832C17.6676 44.0998 17.0119 43.8281 16.3281 43.8281ZM8.59375 18.9062C9.27751 18.9062 9.93327 18.6346 10.4168 18.1511C10.9003 17.6676 11.1719 17.0119 11.1719 16.3281V11.1719H16.3281C17.0119 11.1719 17.6676 10.9003 18.1511 10.4168C18.6346 9.93327 18.9062 9.27751 18.9062 8.59375C18.9062 7.90999 18.6346 7.25423 18.1511 6.77074C17.6676 6.28725 17.0119 6.01562 16.3281 6.01562H8.59375C7.90999 6.01562 7.25423 6.28725 6.77074 6.77074C6.28725 7.25423 6.01562 7.90999 6.01562 8.59375V16.3281C6.01562 17.0119 6.28725 17.6676 6.77074 18.1511C7.25423 18.6346 7.90999 18.9062 8.59375 18.9062ZM37.8125 38.6719C37.4124 38.6721 37.0178 38.5793 36.6598 38.4007C36.3019 38.222 35.9904 37.9626 35.75 37.6428C34.7895 36.3612 33.5437 35.3209 32.1113 34.6044C30.679 33.8879 29.0994 33.5149 27.4979 33.5149C25.8963 33.5149 24.3167 33.8879 22.8844 34.6044C21.452 35.3209 20.2062 36.3612 19.2457 37.6428C18.8299 38.1753 18.2217 38.5234 17.5519 38.612C16.8821 38.7007 16.2043 38.5229 15.6643 38.1169C15.1243 37.7109 14.7652 37.1091 14.6643 36.4411C14.5635 35.773 14.7289 35.0921 15.125 34.5447C16.4924 32.7158 18.2473 31.2118 20.2641 30.1404C19.105 28.7627 18.3635 27.0825 18.1268 25.2977C17.8901 23.5128 18.168 21.6975 18.9279 20.0653C19.6878 18.433 20.898 17.0517 22.4162 16.0838C23.9344 15.1159 25.6974 14.6018 27.4979 14.6018C29.2983 14.6018 31.0613 15.1159 32.5795 16.0838C34.0977 17.0517 35.308 18.433 36.0678 20.0653C36.8277 21.6975 37.1056 23.5128 36.8689 25.2977C36.6322 27.0825 35.8907 28.7627 34.7316 30.1404C36.7484 31.2118 38.5033 32.7158 39.8707 34.5447C40.1584 34.9275 40.3338 35.3827 40.3773 35.8595C40.4208 36.3364 40.3306 36.8159 40.117 37.2443C39.9033 37.6728 39.5745 38.0333 39.1675 38.2854C38.7605 38.5376 38.2913 38.6714 37.8125 38.6719ZM27.5 28.3594C28.3498 28.3594 29.1806 28.1074 29.8872 27.6352C30.5938 27.1631 31.1446 26.492 31.4698 25.7068C31.795 24.9217 31.8801 24.0577 31.7143 23.2242C31.5485 22.3907 31.1393 21.6251 30.5383 21.0242C29.9374 20.4232 29.1718 20.014 28.3383 19.8482C27.5048 19.6824 26.6408 19.7675 25.8557 20.0927C25.0705 20.4179 24.3994 20.9687 23.9273 21.6753C23.4551 22.3819 23.2031 23.2127 23.2031 24.0625C23.2031 25.2021 23.6558 26.295 24.4617 27.1008C25.2675 27.9067 26.3604 28.3594 27.5 28.3594Z" fill="url(#paint0_linear_464_701)"/>
<defs>
<linearGradient id="paint0_linear_464_701" x1="48.9844" y1="-0.668401" x2="5.83193" y2="-0.508231" gradientUnits="userSpaceOnUse">
<stop stop-color="#00B277"/>
<stop offset="1" stop-color="#0092E7"/>
</linearGradient>
</defs>
</svg>
