<svg width="45" height="45" viewBox="0 0 45 45" fill="none" xmlns="http://www.w3.org/2000/svg">
<path d="M22.499 0C34.9045 0 44.9996 10.0925 45 22.498C45 34.9051 34.9045 44.9971 22.499 44.9971C10.0933 44.9969 0 34.9049 0 22.498C4.12182e-05 10.0927 10.0934 0.000210568 22.499 0ZM22.499 1.03125C10.6619 1.03146 1.03129 10.6615 1.03125 22.498C1.03125 34.3353 10.6622 43.9656 22.499 43.9658C34.3356 43.9658 43.9658 34.3355 43.9658 22.498C43.9658 10.6614 34.3356 1.03125 22.499 1.03125ZM28.7695 40.4395C28.8081 40.5349 28.8554 40.6234 28.9072 40.7061C26.9009 41.4116 24.7447 41.7998 22.4971 41.7998C20.6025 41.7998 18.7739 41.5219 17.0449 41.0137L22.8359 24.1865L28.7695 40.4395ZM14.0752 39.8682C7.63718 36.7395 3.19727 30.1376 3.19727 22.498C3.19728 19.7001 3.79731 17.0438 4.86816 14.6436L14.0752 39.8682ZM39.4346 13.2383C40.9421 15.9874 41.7991 19.1427 41.7988 22.498C41.7988 29.6184 37.9393 35.8356 32.2012 39.1816L38.0967 22.1357C39.1984 19.3828 39.5645 17.1812 39.5645 15.2227C39.5645 14.5129 39.5175 13.853 39.4346 13.2383ZM22.5 3.19824C27.5247 3.19833 32.0994 5.11892 35.5332 8.26465C35.45 8.25986 35.3687 8.24902 35.2832 8.24902C33.388 8.24916 32.0421 9.90077 32.042 11.6748C32.042 13.2646 32.9591 14.6114 33.9375 16.2012C34.6724 17.4869 35.5293 19.1391 35.5293 21.5244C35.5292 23.1766 34.8949 25.0942 34.0605 27.7637L32.1348 34.1963L25.1602 13.4492C26.3213 13.3882 27.3691 13.2646 27.3691 13.2646C28.4085 13.1414 28.2862 11.6135 27.2451 11.6748C27.2451 11.6748 24.1201 11.9199 22.1016 11.9199C20.2176 11.9199 17.0596 11.678 17.0176 11.6748C15.9775 11.6135 15.8554 13.2037 16.8955 13.2646C16.9141 13.267 17.8896 13.3888 18.9189 13.4492L21.9268 21.6875L17.7021 34.3555L10.6738 13.4492C11.8353 13.3884 12.8792 13.266 12.8828 13.2656C13.9222 13.1426 13.7993 11.6144 12.7588 11.6758C12.7258 11.6784 9.62334 11.9209 7.61523 11.9209C7.25274 11.9209 6.82589 11.911 6.37305 11.8975C9.82425 6.65751 15.7571 3.19824 22.5 3.19824Z" fill="url(#paint0_linear_549_629)"/>
<defs>
<linearGradient id="paint0_linear_549_629" x1="45" y1="-6.99952" x2="-0.192383" y2="-6.83177" gradientUnits="userSpaceOnUse">
<stop stop-color="#00B277"/>
<stop offset="1" stop-color="#0092E7"/>
</linearGradient>
</defs>
</svg>
