<svg width="22" height="22" viewBox="0 0 22 22" fill="none" xmlns="http://www.w3.org/2000/svg">
<path d="M17.875 2.40625H16.1562V2.0625C16.1562 1.789 16.0476 1.52669 15.8542 1.3333C15.6608 1.1399 15.3985 1.03125 15.125 1.03125C14.8515 1.03125 14.5892 1.1399 14.3958 1.3333C14.2024 1.52669 14.0938 1.789 14.0938 2.0625V2.40625H7.90625V2.0625C7.90625 1.789 7.7976 1.52669 7.6042 1.3333C7.41081 1.1399 7.1485 1.03125 6.875 1.03125C6.6015 1.03125 6.33919 1.1399 6.1458 1.3333C5.9524 1.52669 5.84375 1.789 5.84375 2.0625V2.40625H4.125C3.66916 2.40625 3.23199 2.58733 2.90966 2.90966C2.58733 3.23199 2.40625 3.66916 2.40625 4.125V17.875C2.40625 18.3308 2.58733 18.768 2.90966 19.0903C3.23199 19.4127 3.66916 19.5938 4.125 19.5938H17.875C18.3308 19.5938 18.768 19.4127 19.0903 19.0903C19.4127 18.768 19.5938 18.3308 19.5938 17.875V4.125C19.5938 3.66916 19.4127 3.23199 19.0903 2.90966C18.768 2.58733 18.3308 2.40625 17.875 2.40625ZM5.84375 4.46875C5.84375 4.74225 5.9524 5.00456 6.1458 5.19795C6.33919 5.39135 6.6015 5.5 6.875 5.5C7.1485 5.5 7.41081 5.39135 7.6042 5.19795C7.7976 5.00456 7.90625 4.74225 7.90625 4.46875H14.0938C14.0938 4.74225 14.2024 5.00456 14.3958 5.19795C14.5892 5.39135 14.8515 5.5 15.125 5.5C15.3985 5.5 15.6608 5.39135 15.8542 5.19795C16.0476 5.00456 16.1562 4.74225 16.1562 4.46875H17.5312V6.53125H4.46875V4.46875H5.84375ZM4.46875 17.5312V8.59375H17.5312V17.5312H4.46875ZM9.625 10.6562V15.4688C9.625 15.7423 9.51635 16.0046 9.32295 16.198C9.12956 16.3913 8.86725 16.5 8.59375 16.5C8.32025 16.5 8.05794 16.3913 7.86455 16.198C7.67115 16.0046 7.5625 15.7423 7.5625 15.4688V12.3166C7.31712 12.3971 7.05046 12.3826 6.81523 12.276C6.58001 12.1694 6.39335 11.9784 6.29215 11.7408C6.19095 11.5032 6.18259 11.2363 6.26871 10.9928C6.35484 10.7494 6.52918 10.5471 6.75727 10.4259L8.13227 9.73844C8.28916 9.65993 8.46348 9.62274 8.63875 9.63039C8.81403 9.63805 8.98445 9.69029 9.1339 9.78218C9.28335 9.87407 9.40688 10.0026 9.49282 10.1555C9.57875 10.3085 9.62425 10.4808 9.625 10.6562ZM14.9093 13.5678L14.0852 14.4375H14.4375C14.711 14.4375 14.9733 14.5462 15.1667 14.7395C15.3601 14.9329 15.4688 15.1952 15.4688 15.4688C15.4688 15.7423 15.3601 16.0046 15.1667 16.198C14.9733 16.3913 14.711 16.5 14.4375 16.5H11.6875C11.486 16.4999 11.2889 16.4408 11.1206 16.33C10.9523 16.2191 10.8202 16.0614 10.7405 15.8762C10.6609 15.6911 10.6373 15.4867 10.6725 15.2883C10.7078 15.0898 10.8004 14.9061 10.939 14.7598L13.359 12.2031C13.3896 12.151 13.4059 12.0917 13.4062 12.0312C13.4064 11.9554 13.3816 11.8816 13.3355 11.8214C13.2894 11.7612 13.2247 11.7179 13.1514 11.6983C13.0782 11.6787 13.0005 11.6839 12.9305 11.713C12.8604 11.7421 12.802 11.7936 12.7643 11.8594C12.6249 12.0909 12.4002 12.2585 12.1385 12.326C11.8769 12.3935 11.5991 12.3556 11.3651 12.2205C11.1311 12.0854 10.9594 11.8637 10.8871 11.6033C10.8149 11.343 10.8477 11.0646 10.9785 10.8281C11.2433 10.3693 11.6522 10.0108 12.1416 9.80802C12.631 9.60527 13.1736 9.56969 13.6853 9.70679C14.197 9.8439 14.6491 10.146 14.9716 10.5663C15.294 10.9866 15.4688 11.5015 15.4688 12.0312C15.4703 12.5543 15.3 13.0634 14.9841 13.4802C14.961 13.5109 14.936 13.5402 14.9093 13.5678Z" fill="url(#paint0_linear_464_862)"/>
<defs>
<linearGradient id="paint0_linear_464_862" x1="19.5938" y1="-1.85625" x2="2.33274" y2="-1.79693" gradientUnits="userSpaceOnUse">
<stop stop-color="#00B277"/>
<stop offset="1" stop-color="#0092E7"/>
</linearGradient>
</defs>
</svg>
